<?xml version="1.0" encoding="UTF-8"?>
<svg width="40px" height="40px" viewBox="0 0 40 40" version="1.1" xmlns="http://www.w3.org/2000/svg" xmlns:xlink="http://www.w3.org/1999/xlink">
    <title>规格分类icon/CD</title>
    <defs>
        <rect id="path-1" x="0" y="0" width="40" height="40"></rect>
    </defs>
    <g id="规格分类icon/CD" stroke="none" stroke-width="1" fill="none" fill-rule="evenodd">
        <g id="视频">
            <mask id="mask-2" fill="white">
                <use xlink:href="#path-1"></use>
            </mask>
            <g id="蒙版"></g>
        </g>
        <text id="CD" font-family="AlimamaShuHeiTi-Bold, Alimama ShuHeiTi" font-size="8" font-weight="bold" fill="#1A70CC">
            <tspan x="14.452" y="35">CD</tspan>
        </text>
        <g id="dvd" transform="translate(9, 3)" fill="#1A70CC" fill-rule="nonzero">
            <rect id="矩形" opacity="0" x="0" y="0" width="22" height="22"></rect>
            <path d="M11,0.6875 C5.30456352,0.6875 0.6875,5.30456352 0.6875,11 C0.6875,16.6954365 5.30456352,21.3125 11,21.3125 C16.6954365,21.3125 21.3125,16.6954365 21.3125,11 C21.3125,5.30456352 16.6954365,0.6875 11,0.6875 L11,0.6875 Z M11,13.75 C9.48121694,13.75 8.25,12.5187831 8.25,11 C8.25,9.48121694 9.48121694,8.25 11,8.25 C12.5187831,8.25 13.75,9.48121694 13.75,11 C13.75,11.7293453 13.4602687,12.4288186 12.9445436,12.9445436 C12.4288186,13.4602687 11.7293453,13.75 11,13.75 Z M18.5625,11 C18.1828042,11 17.875,10.6921958 17.875,10.3125 C17.875,6.89523811 15.1047619,4.125 11.6875,4.125 C11.3078042,4.125 11,3.81719577 11,3.4375 C11,3.05780423 11.3078042,2.75 11.6875,2.75 C15.8641534,2.75 19.25,6.13584658 19.25,10.3125 C19.25,10.6921958 18.9421958,11 18.5625,11 Z" id="形状"></path>
        </g>
    </g>
</svg>