<?xml version="1.0" encoding="UTF-8"?>
<svg width="40px" height="40px" viewBox="0 0 40 40" version="1.1" xmlns="http://www.w3.org/2000/svg" xmlns:xlink="http://www.w3.org/1999/xlink">
    <title>规格分类icon/DVDR</title>
    <defs>
        <rect id="path-1" x="0" y="0" width="40" height="40"></rect>
    </defs>
    <g id="规格分类icon/DVDR" stroke="none" stroke-width="1" fill="none" fill-rule="evenodd">
        <g id="视频">
            <mask id="mask-2" fill="white">
                <use xlink:href="#path-1"></use>
            </mask>
            <g id="蒙版"></g>
        </g>
        <text id="DVDR" font-family="AlimamaShuHeiTi-Bold, Alimama ShuHeiTi" font-size="8" font-weight="bold" fill="#1A70CC">
            <tspan x="8.864" y="35">DVDR</tspan>
        </text>
        <g id="DVD-Disc" transform="translate(9, 3)" fill="#1A70CC" fill-rule="nonzero">
            <rect id="矩形" opacity="0" x="0" y="0" width="22" height="22"></rect>
            <path d="M19.4333262,14.3 L9.16667383,14.3 C8.14,14.3 7.33332617,15.1066738 7.33332617,16.1333262 L7.33332617,19.8 C7.33332617,20.8266738 8.14,21.6333262 9.16667383,21.6333262 L19.4333262,21.6333262 C20.46,21.6333262 21.2666738,20.8266738 21.2666738,19.8 L21.2666738,16.1333262 C21.2666738,15.1066738 20.46,14.3 19.4333262,14.3 L19.4333262,14.3 Z M19.7266738,17.38 L19.4333262,18.5533262 C19.2133262,19.5066738 18.3333262,20.24 17.3066738,20.24 L15.9866738,20.24 C15.84,20.24 15.7666738,20.1666738 15.6933262,20.0933262 C15.62,20.02 15.62,19.8733262 15.62,19.8 L16.06,17.9666738 C16.1333262,17.7466738 16.28,17.6733262 16.5,17.6733262 C16.72,17.7466738 16.7933262,17.8933262 16.7933262,18.1133262 L16.4266738,19.5066738 L17.3066738,19.5066738 C17.9666738,19.5066738 18.5533262,19.0666738 18.7,18.4066738 L18.9933262,17.2333262 C19.0666738,17.0866738 18.9933262,16.8666738 18.92,16.7933262 C18.8466738,16.6466738 18.6266738,16.5733262 18.48,16.5733262 L16.6466738,16.5733262 L14.0066738,20.0933262 C13.9333262,20.1666738 13.86,20.24 13.7133262,20.24 L13.64,20.24 C13.4933262,20.24 13.42,20.0933262 13.3466738,19.9466738 L12.76,17.6733262 L12.54,18.5533262 C12.32,19.5066738 11.44,20.24 10.4133262,20.24 L9.09332617,20.24 C8.94667383,20.24 8.87332617,20.1666738 8.8,20.0933262 C8.8,19.9466738 8.72667383,19.8 8.8,19.7266738 L9.24,17.8933262 C9.31332617,17.6733262 9.46,17.6 9.68,17.6 C9.9,17.6733262 9.97332617,17.82 9.97332617,18.04 L9.60667383,19.4333262 L10.4866738,19.4333262 C11.1466738,19.4333262 11.7333262,18.9933262 11.88,18.3333262 L12.1733262,17.16 C12.2466738,17.0133262 12.1733262,16.7933262 12.1,16.72 C12.0266738,16.5733262 11.8066738,16.5 11.66,16.5 L10.12,16.5 C9.9,16.5 9.75332617,16.3533262 9.75332617,16.1333262 C9.75332617,15.9133262 9.9,15.7666738 10.12,15.7666738 L12.8333262,15.7666738 C12.98,15.7666738 13.1266738,15.9133262 13.2,16.06 L13.9333262,18.9933262 L16.2066738,15.9133262 C16.28,15.84 16.3533262,15.7666738 16.5,15.7666738 L18.48,15.7666738 C18.8466738,15.7666738 19.2133262,15.9133262 19.5066738,16.28 C19.800004,16.6466738 19.8733262,16.94 19.7266738,17.38 L19.7266738,17.38 Z M10.2666738,11.3666738 C10.2666738,11.7716787 10.5949951,12.1 11,12.1 C11.4050049,12.1 11.7333262,11.7716787 11.7333262,11.3666738 C11.7333262,10.961669 11.4050049,10.6333477 11,10.6333477 C10.5949951,10.6333477 10.2666738,10.961669 10.2666738,11.3666738 L10.2666738,11.3666738 Z" id="形状"></path>
            <path d="M11,0.366673828 C4.91332617,0.366673828 0,5.28 0,11.3666738 C0,15.5466738 2.34667383,19.36 6.08667383,21.1933262 C6.16,21.2666738 6.23332617,21.2666738 6.23332617,21.2666738 C6.30667383,21.2666738 6.38,21.2666738 6.38,21.1933262 L6.6,21.12 C6.74667383,21.0466738 6.82,20.8266738 6.82,20.68 C6.67332617,20.3866738 6.6,20.0933262 6.6,19.8 L6.6,16.1333262 C6.6,15.2533262 7.04,14.4466738 7.84667383,13.9333262 C7.92,13.86 7.99332617,13.7866738 7.99332617,13.7133262 C7.99332617,13.64 7.99332617,13.4933262 7.92,13.42 C7.48,12.8333262 7.26,12.1 7.26,11.3666738 C7.26,9.31332617 8.87332617,7.7 10.9266738,7.7 C12.9800215,7.7 14.5933262,9.31332617 14.5933262,11.3666738 C14.5933262,11.9533262 14.4466738,12.54 14.1533262,13.0533262 C14.08,13.2 14.08,13.2733262 14.1533262,13.42 C14.2266523,13.5666738 14.3733262,13.5666738 14.4466738,13.5666738 L19.2866738,13.5666738 C19.8,13.5666738 20.24,13.7133262 20.68,14.0066738 C20.7533262,14.08 20.9,14.08 21.0466738,14.0066738 L21.4133262,13.7866738 L21.6333262,13.5666738 C21.78,12.8333262 21.8533262,12.1 21.8533262,11.3666738 C22,5.28 17.0866738,0.366673828 11,0.366673828 L11,0.366673828 Z M4.76667383,17.6 C4.91332617,17.7466738 4.91332617,17.9666738 4.76667383,18.1133262 C4.69332617,18.1866738 4.62,18.1866738 4.47332617,18.1866738 C4.32665234,18.1866738 4.25332617,18.1866738 4.18,18.1133262 C2.49332617,16.28 1.46667383,13.9333262 1.46667383,11.3666738 C1.46667383,8.80002148 2.42,6.45332617 4.25332617,4.62 C4.4,4.47332617 4.62,4.47332617 4.76667383,4.62 C4.91334766,4.76667383 4.91332617,4.98667383 4.76667383,5.13332617 C3.15332617,6.82 2.2,9.02 2.2,11.3666738 C2.2,13.7133477 3.15332617,15.9133262 4.76667383,17.6 Z" id="形状"></path>
        </g>
    </g>
</svg>