<?xml version="1.0" encoding="UTF-8"?>
<svg width="40px" height="40px" viewBox="0 0 40 40" version="1.1" xmlns="http://www.w3.org/2000/svg" xmlns:xlink="http://www.w3.org/1999/xlink">
    <title>规格分类icon/MiniBD</title>
    <defs>
        <rect id="path-1" x="0" y="0" width="40" height="40"></rect>
    </defs>
    <g id="规格分类icon/MiniBD" stroke="none" stroke-width="1" fill="none" fill-rule="evenodd">
        <g id="视频">
            <mask id="mask-2" fill="white">
                <use xlink:href="#path-1"></use>
            </mask>
            <g id="蒙版"></g>
        </g>
        <text id="MiniBD" font-family="AlimamaShuHeiTi-Bold, Alimama ShuHeiTi" font-size="8" font-weight="bold" fill="#1A70CC">
            <tspan x="6.224" y="35">MiniBD</tspan>
        </text>
        <g id="录制" transform="translate(9, 3)" fill="#1A70CC" fill-rule="nonzero">
            <rect id="矩形" opacity="0" x="0" y="0" width="22" height="22"></rect>
            <path d="M13.0998828,11.1848086 L9.16738281,8.91 C9.15583708,8.90266828 9.14256835,8.89849726 9.1289043,8.8979043 C9.11449377,8.89820957 9.100431,8.90238759 9.08819141,8.91 C9.06315145,8.92327077 9.0481193,8.9498958 9.04969141,8.97819141 L9.04969141,13.519 C9.0481193,13.5472956 9.06315145,13.5739206 9.08819141,13.5871914 C9.11235086,13.6025893 9.14324485,13.6025893 9.1674043,13.5871914 L13.0999043,11.3168086 C13.1246416,11.3030187 13.1399745,11.276917 13.1399745,11.2485957 C13.1399745,11.2202744 13.1246416,11.1941727 13.0999043,11.1803828 L13.0998828,11.1848086 Z" id="路径"></path>
            <path d="M20.4501172,6.413 C19.9520591,6.13918837 19.3464161,6.14881161 18.8573086,6.43830859 L17.8475,7.02130859 L17.8475,6.03130859 C17.8477965,5.33366728 17.5707909,4.66451439 17.077484,4.17120744 C16.584177,3.6779005 15.9150241,3.40089488 15.2173828,3.40119117 L3.92702148,3.40119117 C2.47616612,3.40119117 1.29933385,4.57605097 1.2969043,6.0269043 L1.2969043,16.4395 C1.2969043,17.8920736 2.47444787,19.0696174 3.92702148,19.0696174 L15.2174258,19.0696174 C15.9150634,19.069908 16.5842107,18.7928999 17.077513,18.2995936 C17.5708153,17.8062872 17.847818,17.1371376 17.8475215,16.4395 L17.8475215,15.2185 L18.8936172,15.8235 C19.3872994,16.1109114 19.9988035,16.1045768 20.4864258,15.807 C20.9609598,15.5105842 21.2465632,14.9881562 21.240039,14.4286914 L21.240039,7.7715 C21.2436893,7.20862685 20.9411322,6.68821738 20.4501172,6.413 L20.4501172,6.413 Z M4.75969141,7.76600057 C4.35161611,7.76600057 3.98374284,7.5201236 3.82767973,7.14306956 C3.67161662,6.76601552 3.75811304,6.3320752 4.04681954,6.04367617 C4.33552604,5.75527713 4.76955827,5.66924313 5.14644581,5.82570792 C5.52333335,5.9821727 5.7688174,6.35030775 5.76838339,6.75838281 C5.76838339,7.02580573 5.66207615,7.28226003 5.47287888,7.47125582 C5.2836816,7.66025161 5.02711417,7.7662851 4.75969141,7.76600057 L4.75969141,7.76600057 Z M13.6499043,12.276 L9.71738281,14.5441914 C9.35276227,14.7549767 8.90335247,14.7550834 8.53863194,14.5444711 C8.1739114,14.3338588 7.94936412,13.9445676 7.94966961,13.5234043 L7.94966961,8.9825957 C7.94936412,8.56143243 8.1739114,8.17214115 8.53863194,7.96152888 C8.90335247,7.75091661 9.35276227,7.75102325 9.71738281,7.96180859 L13.6498828,10.23 C14.0149115,10.4403056 14.2398618,10.8295207 14.2398618,11.2507979 C14.2398618,11.672075 14.0149115,12.0612901 13.6498828,12.2715957 L13.6499043,12.276 Z" id="形状"></path>
        </g>
    </g>
</svg>