<?xml version="1.0" encoding="UTF-8"?>
<svg width="40px" height="40px" viewBox="0 0 40 40" version="1.1" xmlns="http://www.w3.org/2000/svg" xmlns:xlink="http://www.w3.org/1999/xlink">
    <title>规格分类icon/Track</title>
    <defs>
        <rect id="path-1" x="0" y="0" width="40" height="40"></rect>
    </defs>
    <g id="规格分类icon/Track" stroke="none" stroke-width="1" fill="none" fill-rule="evenodd">
        <g id="视频">
            <mask id="mask-2" fill="white">
                <use xlink:href="#path-1"></use>
            </mask>
            <g id="蒙版"></g>
        </g>
        <text id="Track" font-family="AlimamaShuHeiTi-Bold, Alimama ShuHeiTi" font-size="8" font-weight="bold" fill="#1A70CC">
            <tspan x="9.336" y="35">Track</tspan>
        </text>
        <g id="55" transform="translate(9, 3)" fill="#1A70CC" fill-rule="nonzero">
            <rect id="矩形" opacity="0" x="0" y="0" width="22" height="22"></rect>
            <path d="M20.7796875,20.0234375 C20.728125,19.45625 20.453125,18.9234375 20.00625,18.5625 C20.3671875,17.978125 20.521875,17.3078125 20.4359375,16.6375 C20.35,15.8125 19.9546875,15.0734375 19.3015625,14.540625 L15.5203125,11.4640625 C16.6203125,8.078125 15.5203125,4.365625 12.753125,2.1140625 C9.55625,-0.4984375 4.9328125,-0.4640625 1.7703125,2.1828125 C1.5984375,2.3375 1.5640625,2.5953125 1.71875,2.784375 L2.54375,3.7640625 C2.646875,3.6609375 2.75,3.575 2.853125,3.4890625 C2.990625,3.36875 3.128125,3.265625 3.265625,3.1625 C3.23125,3.1796875 3.2140625,3.196875 3.1796875,3.2140625 L2.646875,2.5609375 C5.4828125,0.446875 9.4359375,0.4984375 12.2203125,2.75 C14.64375,4.709375 15.640625,7.90625 14.815625,10.8796875 L14.09375,10.2953125 C14.1109375,10.2609375 14.1109375,10.209375 14.1109375,10.175 C14.0765625,10.3125 14.059375,10.4328125 14.025,10.5703125 C13.7671875,11.5328125 13.3203125,12.409375 12.7015625,13.1828125 C12.0828125,13.95625 11.309375,14.575 10.415625,15.0046875 C10.3296875,15.0390625 10.24375,15.090625 10.1578125,15.125 L15.3828125,19.3703125 C15.95,19.8171875 16.6203125,20.0578125 17.3421875,20.0578125 C17.4453125,20.0578125 17.565625,20.0578125 17.66875,20.040625 C18.35625,19.971875 18.975,19.6796875 19.4734375,19.215625 C19.73125,19.4390625 19.903125,19.765625 19.9375,20.109375 C19.971875,20.4875 19.86875,20.8484375 19.628125,21.1234375 C19.4734375,21.3125 19.5078125,21.5703125 19.696875,21.725 C19.7828125,21.79375 19.86875,21.828125 19.9546875,21.828125 C20.075,21.828125 20.1953125,21.7765625 20.28125,21.6734375 C20.659375,21.209375 20.83125,20.625 20.7796875,20.0234375 L20.7796875,20.0234375 Z M15.125,16.8609375 L15.0734375,16.8609375 C14.8671875,16.8609375 14.678125,16.70625 14.6609375,16.4828125 L14.3515625,13.4234375 C14.334375,13.1828125 14.4890625,12.9765625 14.7296875,12.959375 C14.9703125,12.925 15.1765625,13.096875 15.19375,13.3375 L15.503125,16.396875 C15.5375,16.6375 15.365625,16.84375 15.125,16.8609375 Z M17.428125,18.734375 L17.3765625,18.734375 C17.1703125,18.734375 16.98125,18.5796875 16.9640625,18.35625 L16.6546875,15.296875 C16.6375,15.05625 16.7921875,14.85 17.0328125,14.8328125 C17.2734375,14.815625 17.4796875,14.9703125 17.496875,15.2109375 L17.80625,18.2703125 C17.840625,18.49375 17.66875,18.7 17.428125,18.734375 Z" id="形状"></path>
            <path d="M12.0484375,12.6328125 C12.5984375,11.9625 12.99375,11.1890625 13.2171875,10.346875 C13.81875,8.0265625 13.028125,5.56875 11.171875,4.05625 C10.0546875,3.1453125 8.696875,2.6984375 7.321875,2.6984375 C5.9296875,2.6984375 4.5375,3.1796875 3.4203125,4.1078125 C3.1109375,4.365625 2.8359375,4.640625 2.5953125,4.9328125 C1.5640625,6.2046875 1.1,7.7859375 1.271875,9.4015625 C1.44375,11.0171875 2.234375,12.478125 3.4890625,13.509375 C5.328125,15.0390625 7.90625,15.3140625 10.0375,14.2484375 C10.8109375,13.853125 11.4984375,13.3203125 12.0484375,12.6328125 L12.0484375,12.6328125 Z M8.8515625,10.0546875 C8.45625,10.5359375 7.8890625,10.79375 7.3046875,10.79375 C6.8578125,10.79375 6.428125,10.65625 6.05,10.346875 C5.2078125,9.659375 5.0703125,8.4046875 5.7578125,7.5625 C6.4453125,6.7203125 7.7,6.5828125 8.5421875,7.2703125 C8.9546875,7.596875 9.2125,8.078125 9.2640625,8.6109375 C9.3328125,9.1265625 9.178125,9.6421875 8.8515625,10.0546875 L8.8515625,10.0546875 Z M10.0890625,5.3796875 C9.00625,4.503125 7.596875,4.19375 6.2390625,4.5203125 C6.015625,4.571875 5.775,4.434375 5.7234375,4.2109375 C5.671875,3.9875 5.809375,3.746875 6.0328125,3.6953125 C7.6484375,3.3 9.315625,3.6609375 10.6046875,4.709375 C11.6015625,5.5171875 12.2546875,6.6515625 12.478125,7.9234375 C12.5125,8.146875 12.3578125,8.3703125 12.134375,8.4046875 L12.065625,8.4046875 C11.859375,8.4046875 11.6875,8.25 11.653125,8.04375 C11.48125,7.0125 10.93125,6.05 10.0890625,5.3796875 L10.0890625,5.3796875 Z" id="形状"></path>
        </g>
    </g>
</svg>