<?xml version="1.0" encoding="UTF-8"?>
<svg width="36px" height="36px" viewBox="0 0 36 36" version="1.1" xmlns="http://www.w3.org/2000/svg" xmlns:xlink="http://www.w3.org/1999/xlink">
    <title>12</title>
    <g id="web2" stroke="none" stroke-width="1" fill="none" fill-rule="evenodd">
        <g id="候选区备份" transform="translate(-1627, -357)">
            <g id="12" transform="translate(1627, 357)">
                <g id="编组-2备份" fill="#E2EAF5" stroke="#14598D">
                    <rect id="矩形备份-2" x="0.5" y="0.5" width="35" height="35" rx="6"></rect>
                </g>
                <g id="好友" transform="translate(2, 2)" fill="#14598D" fill-rule="nonzero">
                    <rect id="矩形" opacity="0" x="0" y="0" width="32" height="32"></rect>
                    <path d="M20.7357259,18.8235382 C19.3686786,18.3317422 17.9298532,17.9683771 16.4420881,17.7459726 C16.5106036,17.7459726 16.5823817,17.749105 16.6411093,17.7616348 C16.2854812,17.6989857 16.0179445,17.3951372 16.0179445,17.0317721 C16.0179445,16.846957 16.08646,16.6778043 16.2039152,16.5493735 C16.1973899,16.5587709 16.1843393,16.5619033 16.1745514,16.5650358 C16.5660685,16.1609487 16.9216966,15.6973449 17.2218597,15.1898866 C17.7177814,15.0927804 18.2528548,14.7106205 18.6084829,14.1279833 C19.1468189,13.250895 19.0750408,12.2641706 18.4584013,11.9227327 C18.4192496,11.9008055 18.3768352,11.8914081 18.3311582,11.8757458 C18.3344209,11.8506862 18.3311582,11.8287589 18.3344209,11.8036993 L18.3735726,11.8036993 L18.3735726,9.54206444 L18.3539967,9.54206444 C18.3637847,9.45122315 18.3735726,9.3572494 18.3735726,9.26327566 C18.3735726,7.55608592 16.9445351,6.17153938 15.1729201,6.14647971 C14.3800979,5.43854415 13.3230016,5 12.1582382,5 C9.70799347,5 7.72104405,6.90453461 7.72104405,9.2601432 C7.72104405,9.35411695 7.73083197,9.45122315 7.73735726,9.5451969 L7.72104405,9.5451969 L7.72104405,11.8068317 L7.76019576,11.8068317 C7.7634584,11.8318914 7.76019576,11.8538186 7.7634584,11.8788783 C7.72104405,11.8945406 7.67862969,11.9039379 7.63621533,11.9258652 C7.01631321,12.2641706 6.95106036,13.250895 7.48613377,14.1311158 C7.84176183,14.713753 8.37030995,15.0959129 8.87275693,15.1930191 C9.17292007,15.6973449 9.52528548,16.1672136 9.92006525,16.5681683 C9.91027732,16.5619033 9.89722675,16.5587709 9.89070147,16.552506 C10.0081566,16.6840692 10.0766721,16.8500895 10.0766721,17.0349045 C10.0766721,17.3982697 9.8091354,17.6989857 9.45350734,17.7647673 C9.51549755,17.7522375 9.58401305,17.749105 9.65579119,17.749105 C8.17455139,17.9683771 6.73898858,18.3317422 5.37520392,18.8204057 C3.97879282,19.403043 3,20.7124105 3,22.247315 L3,22.7422434 C3,23.8761933 3.79934747,24.8221957 4.8858075,25.1354415 C7.51223491,25.699284 10.2430669,26 13.0522023,26 C15.8548124,26 18.5823817,25.699284 21.2055465,25.1354415 C22.2985318,24.8284606 23.1044046,23.8793258 23.1044046,22.7422434 L23.1044046,22.247315 C23.0946166,20.715543 22.1190865,19.4093079 20.7357259,18.8235382 Z M18.2756933,16.1734785 C18.3735726,16.2893795 18.4388254,16.436605 18.4388254,16.6026253 C18.4388254,16.7341885 18.3964111,16.8500895 18.324633,16.9534606 C20.771615,17.5079057 21.8417618,18.0372912 21.6362153,17.9589797 C23.1859706,18.6606504 24.2724307,20.2300119 24.2724307,22.0656325 L24.2724307,22.663932 C24.2724307,23.2027148 24.1288744,23.7007757 23.8874388,24.1330549 C25.0946166,24.0077566 26.278956,23.8166766 27.4404568,23.559815 C28.3409462,23.2966885 29,22.4822494 29,21.5080549 L29,21.0820406 C29,19.7695406 28.1973899,18.6481205 27.0587276,18.1469272 C25.91354,17.7177804 24.7096248,17.4045346 23.4665579,17.2134547 C23.5415987,17.2134547 23.7601958,17.2604415 23.8287113,17.2729714 C23.5187602,17.2165871 23.1402936,16.9002088 23.1402936,16.5806981 C23.1402936,16.4178103 23.3001631,16.0043258 23.4013051,15.8915573 C23.3588907,15.9385442 23.1631321,16.2048031 23.0293638,16.1860084 C24.8107667,15.9134845 26.0440457,15.3308473 26.0440457,14.6511038 C26.0440457,14.5101432 25.9918434,14.37858 25.8907015,14.2501492 C25.903752,14.2658115 25.9233279,14.2752088 25.9331158,14.297136 C25.6264274,13.7395585 25.4535073,13.1068019 25.4535073,12.4364558 L25.4535073,11.8162291 C25.4535073,9.31026253 23.3360522,7.27729714 20.725938,7.27729714 C20.2495922,7.27729714 19.7960848,7.35247613 19.3621533,7.47777446 C19.4861338,7.86619928 19.5513866,8.27968377 19.5513866,8.70569809 C19.5513866,8.79967184 19.5383361,8.89364558 19.5318108,8.98448687 L19.5513866,8.98448687 L19.5513866,11.2116647 C20.3539967,12.0041766 20.3344209,13.5390811 19.4078303,14.9298926 C19.0815661,15.4185561 18.7096248,15.875895 18.278956,16.1985382" id="形状"></path>
                </g>
            </g>
        </g>
    </g>
</svg>