<?xml version="1.0" encoding="UTF-8"?>
<svg width="36px" height="36px" viewBox="0 0 36 36" version="1.1" xmlns="http://www.w3.org/2000/svg" xmlns:xlink="http://www.w3.org/1999/xlink">
    <title>2</title>
    <g id="web2" stroke="none" stroke-width="1" fill="none" fill-rule="evenodd">
        <g id="候选区备份" transform="translate(-597, -357)">
            <g id="2" transform="translate(597, 357)">
                <g id="编组-2备份" fill="#E2EAF5" stroke="#14598D">
                    <rect id="矩形备份-2" x="0.5" y="0.5" width="35" height="35" rx="6"></rect>
                </g>
                <g id="勋章" transform="translate(6, 6)" fill="#14598D" fill-rule="nonzero">
                    <rect id="矩形" opacity="0" x="0" y="0" width="24" height="24"></rect>
                    <path d="M15.7999922,6 C15.6,5.84601562 15.4000078,5.84601562 15.1999922,5.84601562 L10.9999922,0.924 L11.8000078,0 L20.9999922,0 L15.7999922,6 Z M12,24 C7.09000781,24 3,19.9099922 3,15 C3,10.0900078 7.09000781,6 12,6 C16.9099922,6 21,10.0900078 21,15 C21,19.9099922 16.9099922,24 12,24 Z M12.312,17.0479922 L13.992,17.8540078 C14.928,18.3379922 15.864,17.532 15.6759844,16.7260078 L15.3019922,15.1159922 L16.6099922,13.9879922 C17.358,13.344 16.9840078,12.3760078 15.864,12.216 L13.9939922,12.0559922 L13.0579922,10.6039922 C12.6859922,9.798 11.3779922,9.798 10.8160078,10.6039922 L9.88000781,12.054 L8.01199219,12.2140078 C7.07599219,12.3760078 6.702,13.344 7.26400781,13.9879922 L8.57200781,15.1159922 L8.19799219,16.7260078 C8.01199219,17.532 9.132,18.1759922 9.88000781,17.8540078 L12.312,17.0479922 Z M13,5.25 C12.276,5.1 11.6959922,4.95 10.9720078,4.95 C9.522,4.95 8.07199219,5.25 6.768,6 L3,0 L9.666,0 L13,5.25 L13,5.25 Z" id="形状"></path>
                </g>
            </g>
        </g>
    </g>
</svg>