<?xml version="1.0" encoding="UTF-8"?>
<svg width="36px" height="36px" viewBox="0 0 36 36" version="1.1" xmlns="http://www.w3.org/2000/svg" xmlns:xlink="http://www.w3.org/1999/xlink">
    <title>3</title>
    <g id="web2" stroke="none" stroke-width="1" fill="none" fill-rule="evenodd">
        <g id="候选区备份" transform="translate(-643, -357)">
            <g id="3" transform="translate(643, 357)">
                <g id="编组-2备份" fill="#E2EAF5" stroke="#14598D">
                    <rect id="矩形备份-2" x="0.5" y="0.5" width="35" height="35" rx="6"></rect>
                </g>
                <g id="药丸" transform="translate(5, 5)" fill="#14598D" fill-rule="nonzero">
                    <rect id="矩形" opacity="0" x="0" y="0" width="26" height="26"></rect>
                    <path d="M22.1649475,3.83493358 C19.7129055,1.38835547 15.7430244,1.38835547 13.2909825,3.83493358 L3.83808218,13.2881098 C1.3874208,15.738488 1.38728913,19.7114677 3.83778808,22.1620084 C6.28828703,24.612549 10.2614625,24.6126807 12.7121239,22.1623025 L22.1651009,12.7091518 C24.6116929,10.2569023 24.6116243,6.28712406 22.1649475,3.83495915 L22.1649475,3.83493358 Z M6.93831943,16.4987691 C6.54821357,16.8893042 6.35912614,17.4373809 6.42544074,17.9853664 C6.46543561,18.3534958 6.26760168,18.7064929 5.93271405,18.8645437 C5.67450743,18.9886064 5.37215201,18.9796694 5.1217246,18.8405725 C4.8712972,18.7014757 4.70393913,18.4495159 4.67283029,18.1647564 C4.55278361,17.0897095 4.92799621,16.0183904 5.69257788,15.2531401 L7.07631462,13.8690624 C7.2414299,13.703929 7.46539004,13.6111558 7.69891687,13.6111558 C7.93244371,13.6111558 8.15640384,13.703929 8.32151913,13.8690624 C8.48668404,14.0342142 8.57947314,14.2582111 8.57947314,14.4917746 C8.57947314,14.7253381 8.48668404,14.949335 8.32151913,15.1144868 L6.93831943,16.4987691 Z M14.9215301,16.1925403 L9.82639804,10.9888233 C9.48615061,10.6413253 9.49201263,10.0838198 9.83949173,9.74355229 C10.0063362,9.58015089 10.2312689,9.48972934 10.4647934,9.49213611 C10.698318,9.49464036 10.9212993,9.58977172 11.0846707,9.75664533 L16.1798283,14.9603623 C16.5200048,15.3078888 16.5141434,15.8653358 16.1667346,16.2056333 C15.9998901,16.3690347 15.7749574,16.4594563 15.5414329,16.4570495 C15.3079084,16.4545452 15.084927,16.3594139 14.9215557,16.1925403 L14.9215301,16.1925403 Z" id="形状"></path>
                </g>
            </g>
        </g>
    </g>
</svg>