<?xml version="1.0" encoding="UTF-8"?>
<svg width="37px" height="37px" viewBox="0 0 37 37" version="1.1" xmlns="http://www.w3.org/2000/svg" xmlns:xlink="http://www.w3.org/1999/xlink">
    <title>4</title>
    <g id="web2" stroke="none" stroke-width="1" fill="none" fill-rule="evenodd">
        <g id="候选区备份" transform="translate(-688, -357)">
            <g id="4" transform="translate(688.8756, 357)">
                <g id="编组-2备份" transform="translate(0.1244, 0)" fill="#E2EAF5" stroke="#14598D">
                    <rect id="矩形备份-2" x="0.5" y="0.5" width="35" height="35" rx="6"></rect>
                </g>
                <g id="wifi" transform="translate(17.0297, 19.0947) rotate(-315) translate(-17.0297, -19.0947)translate(2.5297, 9.511)" fill="#14598D" fill-rule="nonzero">
                    <path d="M14.5129522,0 C9.33854399,0 4.4296561,1.86099585 0.660562751,5.23443983 L0,5.82572614 L0.641134435,6.43568465 L2.73291648,8.42738589 L3.33519428,9 L3.9569004,8.45228216 C6.83876731,5.906639 10.5819562,4.5 14.5,4.5 C18.4180438,4.5 22.1677088,5.906639 25.0430996,8.45228216 L25.6648057,9 L26.2670835,8.42738589 L28.3588656,6.43568465 L29,5.82572614 L28.3394372,5.23443983 C24.5832961,1.86099585 19.6679321,0 14.5129522,0 Z M23.3370639,9.95954289 C20.9104674,7.82858018 17.777156,6.65685425 14.5125082,6.65685425 L13.955892,6.65685425 L13.9496379,6.66899649 C10.8726136,6.79041886 7.94568795,7.95000256 5.65668203,9.95954289 L5,10.5362992 L5.63166557,11.1434111 L7.67676103,13.1104536 L8.24588545,13.6568542 L8.84628045,13.1468803 C10.4285714,11.7990919 12.4361422,11.0523443 14.4937459,11.0523443 C16.5638578,11.0523443 18.5714286,11.7990919 20.1537196,13.1468803 L20.7541145,13.6568542 L21.323239,13.1104536 L23.3683344,11.1434111 L24,10.5362992 L23.3370639,9.95954289 Z M14.8566335,19.1672619 L15.4480092,18.6067899 L18.700576,15.5271439 L19.3535534,14.9076749 L18.6389743,14.3472029 C17.690309,13.6746365 16.6430811,13.1672619 14.8504733,13.1672619 C13.0640257,13.1672619 12.0845596,13.7218342 11.0619723,14.3472029 L10.3535534,14.9076749 L11.0065308,15.5271439 L14.2590975,18.6067899 L14.8566335,19.1672619 Z" id="形状"></path>
                </g>
            </g>
        </g>
    </g>
</svg>