<?xml version="1.0" encoding="UTF-8"?>
<svg width="36px" height="36px" viewBox="0 0 36 36" version="1.1" xmlns="http://www.w3.org/2000/svg" xmlns:xlink="http://www.w3.org/1999/xlink">
    <title>7</title>
    <g id="web2" stroke="none" stroke-width="1" fill="none" fill-rule="evenodd">
        <g id="候选区备份" transform="translate(-827, -357)">
            <g id="7" transform="translate(827, 357)">
                <g id="编组-2备份" fill="#E2EAF5" stroke="#14598D">
                    <rect id="矩形备份-2" x="0.5" y="0.5" width="35" height="35" rx="6"></rect>
                </g>
                <g id="互联网出口" transform="translate(6, 6)" fill="#14598D" fill-rule="nonzero">
                    <rect id="矩形" opacity="0" x="0" y="0" width="24" height="24"></rect>
                    <path d="M15,9.00000781 C15,8.29999219 14.9500078,7.65 14.85,7.00000781 L9.15,7.00000781 C9.04999219,7.65 9,8.29999219 9,9.00000781 C9,9.70000781 9.04999219,10.35 9.15,10.9999922 L14.8999922,10.9999922 C14.9500078,10.35 15,9.70000781 15,9.00000781 Z M4.8,12.4999922 C5.7,14.2999922 7.24999219,15.75 9.15,16.4999922 C8.55,15.2500078 8.1,13.9000078 7.84999219,12.4999922 L4.8,12.4999922 Z M19.2,12.4999922 L16.1500078,12.4999922 C15.85,13.9000078 15.4000078,15.2500078 14.85,16.4999922 C16.7500078,15.75 18.3,14.2999922 19.2,12.4999922 Z M16.5,9.00000781 C16.5,9.70000781 16.4500078,10.35 16.3999922,10.9999922 L19.7500078,10.9999922 C19.9000078,10.35 19.9999922,9.70000781 19.9999922,9.00000781 C19.9999922,8.29999219 19.9000078,7.65 19.7500078,7.00000781 L16.3999922,7.00000781 C16.4500078,7.65 16.5,8.29999219 16.5,9.00000781 Z M7.60000781,10.9999922 C7.54999219,10.35 7.50000781,9.70000781 7.50000781,9.00000781 C7.50000781,8.29999219 7.54999219,7.65 7.60000781,7.00000781 L4.24999219,7.00000781 C4.09999219,7.65 4.00000781,8.29999219 4.00000781,9.00000781 C4.00000781,9.70000781 4.09999219,10.35 4.24999219,10.9999922 L7.60000781,10.9999922 Z M19.2,5.5 C18.3,3.70000781 16.7500078,2.25 14.85,1.5 C15.45,2.74999219 15.9,4.09999219 16.1500078,5.5 L19.2,5.5 Z M9.19999219,1.5 C7.30000781,2.20000781 5.7,3.64999219 4.84999219,5.5 L7.90000781,5.5 C8.14999219,4.09999219 8.59999219,2.74999219 9.19999219,1.5 Z M12.8500078,1.05 C12.6,1.00000781 12.3,1.00000781 12,1.00000781 C11.7,1.00000781 11.4000078,1.00000781 11.1499922,1.05 C10.35,2.4 9.75,3.9 9.40000781,5.50000781 L14.5999922,5.50000781 C14.25,3.9 13.65,2.4 12.8500078,1.05 Z M19.2499922,19.4999922 L15.4999922,19.4999922 L15.4999922,19.0000078 C15.4999922,18.7000078 15.3,18.4999922 15.0000078,18.4999922 L12.75,18.4999922 L12.8500078,16.95 C13.65,15.6 14.25,14.1 14.5999922,12.4999922 L9.40000781,12.4999922 C9.75,14.1 10.35,15.6 11.1499922,16.95 C11.2000078,16.95 11.25,18.4999922 11.25,18.4999922 L9.00000781,18.4999922 C8.7,18.4999922 8.50000781,18.7000078 8.50000781,19.0000078 L8.50000781,19.4999922 L4.75000781,19.4999922 C4.35,19.4999922 4.00000781,19.8499922 4.00000781,20.25 C4.00000781,20.6500078 4.35,20.9999922 4.75000781,20.9999922 L8.50000781,20.9999922 L8.50000781,21.4999922 C8.50000781,21.7999922 8.7,22.0000078 9.00000781,22.0000078 L11.25,22.0000078 L11.25,22.2499922 C11.25,22.65 11.5999922,22.9999922 12.0000078,22.9999922 C12.4000078,22.9999922 12.75,22.65 12.75,22.2499922 L12.75,22.0000078 L15.0000078,22.0000078 C15.3,22.0000078 15.4999922,21.7999922 15.4999922,21.4999922 L15.4999922,20.9999922 L19.2499922,20.9999922 C19.65,20.9999922 19.9999922,20.6500078 19.9999922,20.25 C19.9999922,19.8499922 19.65,19.4999922 19.2499922,19.4999922 Z" id="形状"></path>
                </g>
            </g>
        </g>
    </g>
</svg>