<?xml version="1.0" encoding="UTF-8"?>
<svg width="36px" height="36px" viewBox="0 0 36 36" version="1.1" xmlns="http://www.w3.org/2000/svg" xmlns:xlink="http://www.w3.org/1999/xlink">
    <title>8</title>
    <g id="web2" stroke="none" stroke-width="1" fill="none" fill-rule="evenodd">
        <g id="候选区备份" transform="translate(-873, -357)">
            <g id="8" transform="translate(873, 357)">
                <g id="编组-2备份" fill="#E2EAF5" stroke="#14598D">
                    <rect id="矩形备份-2" x="0.5" y="0.5" width="35" height="35" rx="6"></rect>
                </g>
                <g id="逃跑爱_escapeLove-01" fill="#14598D" fill-rule="nonzero">
                    <rect id="矩形" opacity="0" x="0" y="0" width="36" height="36"></rect>
                    <path d="M20.2382914,15.6619233 C18.7015007,9.97560723 13.4705479,9.91326509 11.5087681,13.2070678 L5.18498633,14.1072883 C4.93661611,14.1389938 4.9400657,14.5223089 5.18498633,14.5543706 L10.8036726,15.3541312 C10.6946657,16.2824948 10.7833201,17.3376801 11.1327632,18.5008064 L7.29268361,19.0472798 C7.04431339,19.078629 7.04776298,19.4623004 7.29268361,19.4943621 L11.7657623,20.1313207 C12.2483594,21.1469633 12.9210288,22.226373 13.8155065,23.3592188 L9.40038089,23.9876276 C9.15201067,24.0189768 9.15546026,24.4026481 9.40038089,24.4347098 L15.5340904,25.3078561 C16.0722259,25.8621668 16.6590006,26.426096 17.305453,27 C36.613133,23.2975891 27.9077568,8.12279871 20.2382914,15.661567 L20.2382914,15.6619233 Z" id="路径"></path>
                </g>
            </g>
        </g>
    </g>
</svg>