<?xml version="1.0" encoding="UTF-8"?>
<svg width="36px" height="36px" viewBox="0 0 36 36" version="1.1" xmlns="http://www.w3.org/2000/svg" xmlns:xlink="http://www.w3.org/1999/xlink">
    <title>9</title>
    <g id="web2" stroke="none" stroke-width="1" fill="none" fill-rule="evenodd">
        <g id="候选区备份" transform="translate(-919, -357)">
            <g id="9" transform="translate(919, 357)">
                <g id="编组-2备份" fill="#E2EAF5" stroke="#14598D">
                    <rect id="矩形备份-2" x="0.5" y="0.5" width="35" height="35" rx="6"></rect>
                </g>
                <g id="签到" transform="translate(4, 4)" fill="#14598D" fill-rule="nonzero">
                    <rect id="矩形" opacity="0" x="0" y="0" width="28" height="28"></rect>
                    <path d="M5.54545455,5.80487805 L5.54545455,7.76829268 C5.5454495,9.11623848 6.61806629,10.2263823 7.98181152,10.289889 L8.10227273,10.2926829 C9.46753404,10.2926879 10.5919386,9.23367504 10.6562611,7.88722609 L10.6590909,7.76829268 L10.6590909,5.80487805 L16.3409091,5.80487805 L16.3409091,7.76829268 C16.340904,9.11623848 17.4135208,10.2263823 18.7772661,10.289889 L18.8977273,10.2926829 C20.2629886,10.2926879 21.3873931,9.23367504 21.4517156,7.88722609 L21.4545455,7.76829268 L21.4545455,5.80487805 L22.5909091,5.80487805 C24.473698,5.80487805 26,7.31182206 26,9.17073171 L26,22.6341463 C26,24.493056 24.473698,26 22.5909091,26 L4.40909091,26 C2.52630199,26 1,24.493056 1,22.6341463 L1,9.17073171 C1,7.31182206 2.52630199,5.80487805 4.40909091,5.80487805 L5.54545455,5.80487805 Z M19.7221164,13.2159968 C19.3899072,12.9174207 18.8812257,12.9298354 18.5640989,13.2442589 L12.8093757,18.9756961 L9.43556943,15.6161149 L9.3715766,15.5585224 C9.02380656,15.2781887 8.51662415,15.3177236 8.2168805,15.6485311 C7.91713685,15.9793386 7.92953662,16.4858629 8.24511092,16.801729 L12.2138724,20.7544311 L12.2778378,20.8120236 C12.6126568,21.0832167 13.0991539,21.0583443 13.4043309,20.7544311 L19.7545574,14.4299003 L19.8123839,14.3661664 C20.0939774,14.019807 20.0543257,13.5145729 19.7221164,13.2159968 Z M8.10227273,3 C8.57296996,3 8.95454545,3.376736 8.95454545,3.84146341 L8.95454545,7.76829268 C8.95454545,8.23302009 8.57296996,8.6097561 8.10227273,8.6097561 C7.6315755,8.6097561 7.25,8.23302009 7.25,7.76829268 L7.25,3.84146341 C7.25,3.376736 7.6315755,3 8.10227273,3 Z M18.8977273,3 C19.3684245,3 19.75,3.376736 19.75,3.84146341 L19.75,7.76829268 C19.75,8.23302009 19.3684245,8.6097561 18.8977273,8.6097561 C18.42703,8.6097561 18.0454545,8.23302009 18.0454545,7.76829268 L18.0454545,3.84146341 C18.0454545,3.376736 18.42703,3 18.8977273,3 Z" id="形状结合"></path>
                </g>
            </g>
        </g>
    </g>
</svg>