<?xml version="1.0" encoding="UTF-8"?>
<svg width="40px" height="40px" viewBox="0 0 40 40" version="1.1" xmlns="http://www.w3.org/2000/svg" xmlns:xlink="http://www.w3.org/1999/xlink">
    <title>规格分类icon/HDTV</title>
    <defs>
        <rect id="path-1" x="0" y="0" width="40" height="40"></rect>
    </defs>
    <g id="规格分类icon/HDTV" stroke="none" stroke-width="1" fill="none" fill-rule="evenodd">
        <g id="视频">
            <mask id="mask-2" fill="white">
                <use xlink:href="#path-1"></use>
            </mask>
            <g id="蒙版"></g>
        </g>
        <text id="HDTV" font-family="AlimamaShuHeiTi-Bold, Alimama ShuHeiTi" font-size="8" font-weight="bold" fill="#1A70CC">
            <tspan x="9.2" y="35">HDTV</tspan>
        </text>
        <g id="高清无水印" transform="translate(9, 3)" fill="#1A70CC" fill-rule="nonzero">
            <rect id="矩形" opacity="0" x="0" y="0" width="22" height="22"></rect>
            <path d="M14.8176445,9.25293359 L14.0411777,9.25293359 L14.0411777,13.3294219 L14.8176445,13.3294219 C15.2705781,13.3294219 15.5294219,13.1352891 15.6588223,12.9411777 C15.7882441,12.7470664 15.8529336,12.5529551 15.8529336,11.3235332 C15.8529336,10.0941113 15.7882441,9.9 15.6588223,9.70588867 C15.5294219,9.44706641 15.2705996,9.25293359 14.8176445,9.25293359 Z M11.1941113,1.4235332 C5.95293359,1.4235332 1.68233398,5.69413281 1.68233398,11.0000215 C1.68233398,16.3059102 5.95293359,20.5764883 11.2588223,20.5764883 C16.5647109,20.5764883 20.8352891,16.3059102 20.8352891,11.0000215 C20.7705781,5.69411133 16.5,1.4235332 11.1941113,1.4235332 L11.1941113,1.4235332 Z M10.6765098,14.9470879 L8.86468945,14.9470879 L8.86468945,12.0353105 L6.92355469,12.0353105 L6.92355469,14.9470879 L5.11177734,14.9470879 L5.11177734,7.63528906 L6.92355469,7.63528906 L6.92355469,10.417666 L8.86473242,10.417666 L8.86473242,7.63528906 L10.6765098,7.63528906 L10.6765098,14.9470879 L10.6765098,14.9470879 Z M16.9529336,14.2353105 C16.4352891,14.7529551 15.7235332,14.9470879 14.9470664,14.9470879 L12.2294219,14.9470879 L12.2294219,7.63531055 L14.9470664,7.63531055 C15.7235117,7.63531055 16.4352891,7.82944336 16.9529336,8.34708789 C17.7941113,9.18826562 17.7294219,10.0941328 17.7294219,11.2588652 C17.6647109,12.4235332 17.7941113,13.3941328 16.9529336,14.2353105 L16.9529336,14.2353105 Z" id="形状"></path>
        </g>
    </g>
</svg>