<?xml version="1.0" encoding="UTF-8"?>
<svg width="40px" height="40px" viewBox="0 0 40 40" version="1.1" xmlns="http://www.w3.org/2000/svg" xmlns:xlink="http://www.w3.org/1999/xlink">
    <title>规格分类icon/remux</title>
    <defs>
        <rect id="path-1" x="0" y="0" width="40" height="40"></rect>
    </defs>
    <g id="规格分类icon/remux" stroke="none" stroke-width="1" fill="none" fill-rule="evenodd">
        <g id="视频">
            <mask id="mask-2" fill="white">
                <use xlink:href="#path-1"></use>
            </mask>
            <g id="蒙版"></g>
        </g>
        <g id="光盘制作_焦点" transform="translate(9, 3)" fill-rule="nonzero">
            <rect id="矩形" fill="#000000" opacity="0" x="0" y="0" width="21" height="21"></rect>
            <path d="M10.4859316,5.86168457 C7.3699541,5.86168457 4.83352734,8.39809082 4.83352734,11.5140684 C4.83352734,14.6300459 7.36993359,17.1664727 10.4859316,17.1664727 C13.6019297,17.1664727 16.1383154,14.6300664 16.1383154,11.5140684 C16.1383154,8.39807031 13.6019092,5.86168457 10.4859316,5.86168457 Z M10.5422256,15.744584 C10.5093926,16.0284941 10.267708,16.2396631 9.98613574,16.2396631 C9.9650127,16.2396631 9.94157227,16.2373252 9.92044922,16.2349668 C7.71485449,15.9721797 6.00435937,14.2475957 5.76033691,12.042001 C5.72514551,11.7346299 5.94804492,11.4577744 6.25541602,11.4249209 C6.56514551,11.3944053 6.83968359,11.6126289 6.87249609,11.92 C7.05552832,13.578877 8.39294531,14.9280449 10.0518428,15.1251455 C10.3592139,15.1603369 10.5797754,15.4372129 10.5422256,15.744584 Z M10.4859316,13.5202246 C9.38076563,13.5202246 8.47977539,12.6215723 8.47977539,11.5140684 C8.47977539,10.4065645 9.37842773,9.50793262 10.4859316,9.50793262 C11.5934355,9.50793262 12.4920674,10.406585 12.4920674,11.5140684 C12.4920674,12.6215518 11.5910566,13.5202246 10.4859316,13.5202246 Z M14.7164063,11.5610107 C14.6929453,11.5633486 14.6718223,11.565707 14.6483613,11.565707 C14.3691475,11.565707 14.1274629,11.356876 14.0922715,11.0729658 C13.8904746,9.4 12.5788564,8.09777441 10.9035527,7.90537012 C10.5961816,7.8701582 10.3756201,7.59330273 10.4108115,7.28593164 C10.4460029,6.97854004 10.7252373,6.75799902 11.03025,6.79319043 C13.2217764,7.04424707 14.9369678,8.7500459 15.2020928,10.9392139 C15.2419805,11.2442471 15.0237773,11.5234814 14.7164063,11.5610107 L14.7164063,11.5610107 Z M10.4859111,10.6295049 C9.99786621,10.6295049 9.60132715,11.0260234 9.60132715,11.5140684 C9.60132715,12.0021133 9.99786621,12.3986523 10.4859111,12.3986523 C10.9739561,12.3986523 11.3704746,12.0021133 11.3704746,11.5140684 C11.3704746,11.0260234 10.9739561,10.6295049 10.4859111,10.6295049 L10.4859111,10.6295049 Z M10.5,1 C4.70211328,1 0,5.70211328 0,11.5 C0,17.2978867 4.70211328,22 10.5,22 C16.2978867,22 21,17.2978867 21,11.5 C21,5.70211328 16.2978867,1 10.5,1 Z M10.4859316,18.285707 C6.75285352,18.285707 3.71429297,15.2471465 3.71429297,11.5140684 C3.71429297,7.78099023 6.75285352,4.7424707 10.4859316,4.7424707 C14.2190098,4.7424707 17.2575293,7.78101074 17.2575293,11.5140684 C17.2575293,15.247126 14.2189893,18.285707 10.4859316,18.285707 Z" id="形状" fill="#1A70CC"></path>
        </g>
        <text id="Remux" font-family="AlimamaShuHeiTi-Bold, Alimama ShuHeiTi" font-size="8" font-weight="bold" fill="#1A70CC">
            <tspan x="6.536" y="35">Remux</tspan>
        </text>
    </g>
</svg>