<?xml version="1.0" encoding="UTF-8"?>
<svg width="40px" height="40px" viewBox="0 0 40 40" version="1.1" xmlns="http://www.w3.org/2000/svg" xmlns:xlink="http://www.w3.org/1999/xlink">
    <title>规格分类icon/UHDTV</title>
    <defs>
        <rect id="path-1" x="0" y="0" width="40" height="40"></rect>
    </defs>
    <g id="规格分类icon/UHDTV" stroke="none" stroke-width="1" fill="none" fill-rule="evenodd">
        <g id="视频">
            <mask id="mask-2" fill="white">
                <use xlink:href="#path-1"></use>
            </mask>
            <g id="蒙版"></g>
        </g>
        <text id="UHDTV" font-family="AlimamaShuHeiTi-Bold, Alimama ShuHeiTi" font-size="8" font-weight="bold" fill="#1A70CC">
            <tspan x="6.26" y="35">UHDTV</tspan>
        </text>
        <g id="电视系统" transform="translate(9, 3)" fill="#1A70CC" fill-rule="nonzero">
            <rect id="矩形" opacity="0" x="0" y="0" width="22" height="22"></rect>
            <path d="M10.9978086,17.0478086 C11.198,17.0478086 11.3608086,16.885 11.3608086,16.687 L11.3608086,15.9874043 C11.3608086,15.7871914 11.198,15.6265957 10.9978086,15.6265957 C10.7976172,15.6265957 10.637,15.7894043 10.6348086,15.9874043 L10.6348086,16.687 C10.637,16.885 10.7975957,17.0478086 10.9978086,17.0478086 L10.9978086,17.0478086 Z M16.6188086,17.7584043 C14.7861914,17.369 12.9161914,17.1841914 11.0418086,17.2128086 C9.13724016,17.1864355 7.23608585,17.3820883 5.37680859,17.7958086 C5.1084043,17.8661914 4.9345957,18.1235957 4.9675957,18.3985957 C5.0005957,18.6735957 5.2315957,18.8825957 5.50878711,18.887 C5.55280859,18.8935957 5.599,18.8935957 5.643,18.887 C7.41534016,18.4956863 9.22694772,18.3103947 11.0418086,18.3348086 C12.8281914,18.3018086 14.6124043,18.4711914 16.3614043,18.8386172 C16.6561914,18.9001914 16.9465957,18.7175957 17.017,18.425 C17.0851914,18.1323828 16.9091914,17.8354043 16.6188086,17.7584043 L16.6188086,17.7584043 Z M19.7758086,3.10857405 L19.536,3.10857405 C16.7001914,3.42538281 13.8511914,3.57716992 10.9978086,3.56838281 C8.14661719,3.57719141 5.2975957,3.42538281 2.464,3.10857405 L2.22419141,3.10857405 C1.97327393,3.10842536 1.73261993,3.20817346 1.55538281,3.38578711 C1.37777704,3.56302775 1.27819123,3.80368131 1.27819123,4.0545957 L1.27819123,14.7377871 C1.27819123,14.9887046 1.37779065,15.2293586 1.5554043,15.4065957 C1.73264494,15.5842015 1.9732985,15.6839417 2.22421289,15.6837873 L2.24180859,15.6837873 C5.148,15.3471699 8.07180859,15.1843828 10.9978086,15.1931699 C13.9238086,15.1843613 16.8475957,15.3471699 19.7538086,15.6837873 L19.7758086,15.6837873 C20.295,15.6815742 20.7174043,15.2613828 20.7196172,14.7421699 L20.7196172,4.0524043 C20.7174043,3.531 20.295,3.11080859 19.7758086,3.10857405 L19.7758086,3.10857405 Z M10.714,8.2434043 L9.2884043,8.2434043 L9.2884043,11.2001914 L8.272,11.2001914 L8.272,8.2434043 L6.8464043,8.2434043 L6.8464043,7.5834043 L10.714,7.5834043 L10.714,8.2434043 Z M13.4178086,11.2001914 L12.518,11.2001914 L10.7888086,7.5855957 L11.847,7.5855957 L12.9734043,10.2234043 L14.0954043,7.5855957 L15.158,7.5855957 L13.4178086,11.2001914 Z" id="形状"></path>
        </g>
    </g>
</svg>