<?xml version="1.0" encoding="UTF-8"?>
<svg width="40px" height="40px" viewBox="0 0 40 40" version="1.1" xmlns="http://www.w3.org/2000/svg" xmlns:xlink="http://www.w3.org/1999/xlink">
    <title>影视分类icon/纪录片</title>
    <defs>
        <linearGradient x1="91.152614%" y1="47.1086525%" x2="17.684379%" y2="54.1246755%" id="linearGradient-1">
            <stop stop-color="#1EA3FD" offset="0%"></stop>
            <stop stop-color="#299EFF" offset="100%"></stop>
        </linearGradient>
        <linearGradient x1="50%" y1="3.15979155%" x2="50%" y2="100%" id="linearGradient-2">
            <stop stop-color="#8CB5FF" offset="0%"></stop>
            <stop stop-color="#73BBFF" offset="100%"></stop>
        </linearGradient>
    </defs>
    <g id="影视分类icon/纪录片" stroke="none" stroke-width="1" fill="none" fill-rule="evenodd">
        <text id="纪录片" font-family="AlimamaShuHeiTi-Bold, Alimama ShuHeiTi" font-size="8" font-weight="bold" fill="#24A6FF">
            <tspan x="8" y="35">纪录片</tspan>
        </text>
        <g id="闹钟" transform="translate(5.8535, 3.0467)">
            <path d="M2.59398928,8.24438691 L14,5.55594431 L14,5.55594431 L25.4060107,8.24438691 C26.9259931,8.60265288 28,9.95923823 28,11.5208723 C28,13.059706 26.8895609,14.3739255 25.372314,14.6307738 L14,16.5559443 L14,16.5559443 L2.62768598,14.6307738 C1.11043913,14.3739255 8.71832193e-16,13.059706 0,11.5208723 C-8.8474986e-16,9.95923823 1.07400689,8.60265288 2.59398928,8.24438691 Z" id="矩形备份-2" fill="url(#linearGradient-1)" transform="translate(14, 11.0559) scale(-1, 1) translate(-14, -11.0559)"></path>
            <circle id="椭圆形" fill="url(#linearGradient-2)" cx="14.1464765" cy="10.9486657" r="10.9486657"></circle>
            <g id="地球" opacity="0.497526042" transform="translate(4.1465, 0.9533)" fill-rule="nonzero">
                <rect id="矩形" fill="#000000" opacity="0" x="0" y="0" width="20" height="20"></rect>
                <path d="M20,9.9918962 C20,4.47353166 15.5228973,0 10.0000978,0 C4.47720047,0 0,4.47355121 0,9.9918962 C0,15.0895279 3.82027459,19.2952139 8.75608554,19.9071924 C9.03434886,19.9658448 9.37324277,20 9.77689273,20 C9.89021581,20 9.99949165,19.994037 10.1050135,19.983245 C15.5794806,19.9269778 20,15.4754603 20,9.9918962 Z M18.5701074,10.1332679 C18.5413465,9.63472297 18.475476,9.14673546 18.3751745,8.6724726 C18.3840902,8.50312373 18.3865146,8.34269001 18.3819786,8.1935371 C18.5059966,8.77341328 18.5713978,9.37502994 18.5713978,9.9918962 C18.5713586,10.0390229 18.5709284,10.0861484 18.5701074,10.1332679 L18.5701074,10.1332679 Z M1.42860215,9.99191575 C1.42860215,9.38627164 1.49167674,8.79538836 1.61133466,8.22526802 C1.98149213,8.62113224 2.85393913,8.61178697 3.06670342,8.02031717 C3.4473994,8.24720399 3.95899566,8.2885148 3.95899566,8.74199518 C3.95899566,10.2386075 4.01229426,11.8431011 5.37221043,11.8678915 C5.41049314,11.8683998 6.13059137,12.1407813 6.47329791,13.0295207 C6.59178271,13.3367026 7.06050155,13.0295207 7.5745027,13.0295207 C7.83110246,13.0295207 7.5745027,13.4617885 7.5745027,14.3965505 C7.5745027,15.327676 9.58209667,16.761413 9.58209667,16.761413 C9.5728095,17.3777514 9.59812927,17.8761399 9.64941403,18.2743112 C9.19625854,18.265963 8.81435035,18.326023 8.51432571,18.4281367 C4.48861881,17.7251688 1.42860215,14.2157644 1.42860215,9.9918962 L1.42860215,9.99191575 Z M12.1102417,18.294859 C12.0658001,18.0773175 11.8714147,17.9581946 11.5167228,18.0514127 C11.7997177,16.8463025 11.9373047,16.171214 12.5281059,15.6586512 C13.3829171,14.9176961 12.6298934,14.0937284 11.9794196,14.1908371 C11.4667285,14.2682387 11.7907238,13.5560819 11.3331104,13.5166871 C10.8755167,13.4784067 10.2778918,12.5682396 9.61932358,12.2550751 C9.27022356,12.0892845 8.92712598,11.6450125 8.388724,11.6251099 C7.91151962,11.6066148 7.2141212,12.0285989 7.2141212,11.703313 C7.2141212,10.655567 7.10801278,9.90792559 7.08621236,9.60934606 C7.0686156,9.36945796 6.92940574,9.52854267 7.5745027,9.54404644 C7.92559702,9.55345037 7.75410689,8.83888885 8.1016232,8.81098989 C8.442922,8.78397071 9.25620481,9.13044966 9.46341635,8.99236249 C9.65592483,8.863777 10.8784103,12.2011736 10.8784103,9.54402689 C10.8784103,9.22875099 10.715132,8.68058617 10.8784103,8.38198708 C11.5242112,7.20205831 12.1287965,6.24041401 12.0745007,6.09974613 C12.0437064,6.02054592 11.4138013,5.95514855 10.9097912,6.12424326 C10.7397088,6.18103828 10.963911,6.44741768 10.7196094,6.50431046 C9.80430456,6.71561531 8.99561645,6.25754049 9.27880686,5.82697363 C9.5687818,5.38571248 10.6194839,5.63447663 10.7116127,4.74923679 C10.7645985,4.24216771 10.8085121,3.65490133 10.8379183,3.21843013 C12.0697692,3.41106398 11.9341569,1.61982136 10.1024913,1.42808685 C13.8080937,1.47143093 16.9481952,3.86442706 18.1004696,7.1855379 C18.0422048,7.13237932 17.9743791,7.10008143 17.8960736,7.09218291 C17.3422842,5.70896511 15.9980878,6.71000423 16.4540783,7.93003166 C14.010867,9.80804065 14.6362751,11.1178453 15.4389803,11.8678915 C15.8613611,12.2621721 16.2640725,12.8551473 16.5262641,13.281022 C16.2408839,14.1131032 17.577807,13.7799188 18.2371378,12.3678049 C17.398457,15.2762379 15.0588318,17.5489772 12.1102417,18.294859 L12.1102417,18.294859 Z" id="形状" fill="#FFFFFF"></path>
            </g>
        </g>
        <text id="BBC" stroke="#FFFFFF" stroke-width="0.5" font-family="AlimamaShuHeiTi-Bold, Alimama ShuHeiTi" font-size="8" font-weight="bold" fill="#24A6FF">
            <tspan x="11.872" y="17">BBC</tspan>
        </text>
    </g>
</svg>