<?xml version="1.0" encoding="UTF-8"?>
<svg width="40px" height="40px" viewBox="0 0 40 40" version="1.1" xmlns="http://www.w3.org/2000/svg" xmlns:xlink="http://www.w3.org/1999/xlink">
    <title>影视分类icon/电影</title>
    <defs>
        <linearGradient x1="50%" y1="0.882320804%" x2="50%" y2="100%" id="linearGradient-1">
            <stop stop-color="#91B5FF" offset="0%"></stop>
            <stop stop-color="#705AF1" offset="100%"></stop>
        </linearGradient>
        <path d="M19.0769231,0 L4.92307692,0 C2.20414716,0 0,2.61600706 0,5.84298736 L0,16.8938547 C0,20.120835 2.20414716,22.7368421 4.92307692,22.7368421 L19.0769231,22.7368421 C21.7958528,22.7368421 24,20.120835 24,16.8938547 L24,5.84298736 C24,2.61600706 21.7958528,0 19.0769231,0 Z" id="path-2"></path>
    </defs>
    <g id="影视分类icon/电影" stroke="none" stroke-width="1" fill="none" fill-rule="evenodd">
        <g id="视频" transform="translate(8, 2)">
            <path d="M18.5741974,0.227646563 C18.9678878,-0.0921671671 19.5838373,-0.0726449962 19.9499365,0.271297735 C20.3123834,0.611775546 20.2940781,1.14254879 19.9116678,1.46346447 L19.8999683,1.47311304 L17.3287299,3.56182712 C16.9350395,3.88164085 16.31909,3.86211868 15.9529908,3.51817595 C15.5905439,3.17769814 15.6088492,2.6469249 15.9912595,2.32600921 L16.0029591,2.31636064 L18.5741974,0.227646563 Z M5.42580256,0.227646563 C5.03211217,-0.0921671671 4.4161627,-0.0726449962 4.05006348,0.271297735 C3.68761663,0.611775546 3.70592189,1.14254879 4.08833223,1.46346447 L4.10003174,1.47311304 L6.67127013,3.56182712 C7.06496052,3.88164085 7.68090999,3.86211868 8.04700921,3.51817595 C8.40945606,3.17769814 8.3911508,2.6469249 8.00874046,2.32600921 L7.99704095,2.31636064 L5.42580256,0.227646563 Z" id="形状" fill="#CF70FC" fill-rule="nonzero"></path>
            <g id="矩形" transform="translate(0, 0)">
                <mask id="mask-3" fill="white">
                    <use xlink:href="#path-2"></use>
                </mask>
                <use id="蒙版" fill="url(#linearGradient-1)" fill-rule="nonzero" xlink:href="#path-2"></use>
                <rect fill="#3D029C" opacity="0.76609003" mask="url(#mask-3)" x="0" y="-1.26315789" width="24" height="6.31578947"></rect>
                <polygon fill="#63BEED" style="mix-blend-mode: luminosity;" mask="url(#mask-3)" points="5.05263158 0 7.57894737 0 3.78947368 5.05263158 1.26315789 5.05263158"></polygon>
                <polygon id="矩形备份" fill="#63BEED" style="mix-blend-mode: luminosity;" mask="url(#mask-3)" points="10.1052632 0 12.6315789 0 8.84210526 5.05263158 6.31578947 5.05263158"></polygon>
                <polygon id="矩形备份-2" fill="#63BEED" style="mix-blend-mode: luminosity;" mask="url(#mask-3)" points="15.1578947 0 17.6842105 0 13.8947368 5.05263158 11.3684211 5.05263158"></polygon>
                <polygon id="矩形备份-3" fill="#63BEED" style="mix-blend-mode: luminosity;" mask="url(#mask-3)" points="20.2105263 0 22.7368421 0 18.9473684 5.05263158 16.4210526 5.05263158"></polygon>
                <polygon id="矩形备份-4" fill="#63BEED" style="mix-blend-mode: luminosity;" mask="url(#mask-3)" points="25.2631579 0 27.7894737 0 24 5.05263158 21.4736842 5.05263158"></polygon>
            </g>
            <path d="M14.6483101,12.183398 L10.7468641,10.2326941 C10.5792598,10.1488927 10.3944464,10.1052632 10.2070594,10.1052632 C9.54041775,10.1052632 9,10.6456809 9,11.3123226 L9,15.2137303 C9,15.4011237 9.04362661,15.585944 9.12743099,15.7535541 C9.42555551,16.3498031 10.150615,16.5914832 10.7468641,16.2933587 L14.6482909,14.3426549 C14.8818854,14.2258561 15.0712967,14.0364447 15.1880956,13.8028502 C15.4862201,13.206582 15.24454,12.4815417 14.6482909,12.183398 L14.6483101,12.183398 Z" id="形状" fill="#D4CCFF" fill-rule="nonzero"></path>
        </g>
        <text id="电-影" font-family="AlimamaShuHeiTi-Bold, Alimama ShuHeiTi" font-size="8" font-weight="bold" fill="#715EF2">
            <tspan x="10.96" y="35">电 影</tspan>
        </text>
    </g>
</svg>