<?xml version="1.0" encoding="UTF-8"?>
<svg width="40px" height="40px" viewBox="0 0 40 40" version="1.1" xmlns="http://www.w3.org/2000/svg" xmlns:xlink="http://www.w3.org/1999/xlink">
    <title>影视分类icon/有声书</title>
    <defs>
        <linearGradient x1="50%" y1="0.882320804%" x2="50%" y2="100%" id="linearGradient-1">
            <stop stop-color="#91B5FF" offset="0%"></stop>
            <stop stop-color="#705AF1" offset="100%"></stop>
        </linearGradient>
        <linearGradient x1="50%" y1="0.882320804%" x2="50%" y2="99.5450484%" id="linearGradient-2">
            <stop stop-color="#C5D8FF" offset="0%"></stop>
            <stop stop-color="#F6F5FF" offset="100%"></stop>
        </linearGradient>
    </defs>
    <g id="影视分类icon/有声书" stroke="none" stroke-width="1" fill="none" fill-rule="evenodd">
        <text id="有声书" font-family="AlimamaShuHeiTi-Bold, Alimama ShuHeiTi" font-size="8" font-weight="bold" fill="#855BFF">
            <tspan x="8" y="35">有声书</tspan>
        </text>
        <g id="icon_kecheng1" transform="translate(9, 1)" fill="#FFFFFF" fill-rule="nonzero">
            <rect id="矩形" opacity="0" x="0" y="0" width="25" height="25"></rect>
            <path d="M8.75,6.90500488 C8.75,6.39875488 9.27875977,6.08000488 9.70751953,6.34499512 L13.4662354,8.84375 C13.6437256,8.96875 13.75,9.17875977 13.75,9.40124512 C13.7515517,9.62247989 13.6457906,9.83075338 13.4662354,9.96000977 L9.70874023,12.4050049 C9.30375977,12.6699951 8.75,12.35 8.75,11.8449951 L8.75,6.90375977 L8.75,6.90498047 L8.75,6.90500488 Z M5.66625977,18.75 L18.0837402,18.75 C18.4425049,18.75 18.75,19.0137451 18.75,19.375 C18.75,19.7112549 18.4675049,20 18.0837402,20 L5.66625977,20 C5.30749512,20 5,19.7362549 5,19.375 C5,19.0375 5.28249512,18.75 5.66625977,18.75 Z M21.48125,5.02875977 C21.0165709,5.07685227 20.6594347,5.46178493 20.6462402,5.92875977 L20.6462402,19.2212402 C20.6462402,20.0712402 19.9412598,20.7462402 19.0524902,20.7462402 L4.58874512,20.7462402 C4.11875,20.7462402 3.72624512,20.3725098 3.72624512,19.9212402 L3.72624512,17.4925049 C3.72624512,17.0425049 4.11875,16.6675049 4.58874512,16.6675049 L18.1662598,16.6675049 C18.6887451,16.6675049 19.10625,16.2675049 19.10625,15.7675049 L19.10625,4.30249023 C19.10625,3.3 18.2699951,2.5 17.225,2.5 L4.38000488,2.5 C3.33625488,2.5 2.5,3.3 2.5,4.30249023 L2.5,20.6975098 C2.5,21.7 3.33625488,22.5 4.38000488,22.5 L19.99375,22.5 C21.3774902,22.5 22.5,21.425 22.5,20.0975098 L22.5,5.90375977 C22.5,5.37875977 22.0300049,4.97875977 21.48125,5.02875977 Z" id="形状"></path>
        </g>
        <g id="icon_kecheng1" transform="translate(7, 2)" fill-rule="nonzero">
            <rect id="矩形" fill="#000000" opacity="0" x="0" y="0" width="25" height="25"></rect>
            <path d="M5.66625977,18.75 L18.0837402,18.75 C18.4425049,18.75 18.75,19.0137451 18.75,19.375 C18.75,19.7112549 18.4675049,20 18.0837402,20 L5.66625977,20 C5.30749512,20 5,19.7362549 5,19.375 C5,19.0375 5.28249512,18.75 5.66625977,18.75 Z M21.48125,5.02875977 C21.0165709,5.07685227 20.6594347,5.46178493 20.6462402,5.92875977 L20.6462402,19.2212402 C20.6462402,20.0712402 19.9412598,20.7462402 19.0524902,20.7462402 L4.58874512,20.7462402 C4.11875,20.7462402 3.72624512,20.3725098 3.72624512,19.9212402 L3.72624512,17.4925049 C3.72624512,17.0425049 4.11875,16.6675049 4.58874512,16.6675049 L18.1662598,16.6675049 C18.6887451,16.6675049 19.10625,16.2675049 19.10625,15.7675049 L19.10625,4.30249023 C19.10625,3.3 18.2699951,2.5 17.225,2.5 L4.38000488,2.5 C3.33625488,2.5 2.5,3.3 2.5,4.30249023 L2.5,20.6975098 C2.5,21.7 3.33625488,22.5 4.38000488,22.5 L19.99375,22.5 C21.3774902,22.5 22.5,21.425 22.5,20.0975098 L22.5,5.90375977 C22.5,5.37875977 22.0300049,4.97875977 21.48125,5.02875977 Z" id="形状" fill="url(#linearGradient-1)"></path>
            <path d="M8.75,6.90500488 C8.75,6.39875488 9.27875977,6.08000488 9.70751953,6.34499512 L13.4662354,8.84375 C13.6437256,8.96875 13.75,9.17875977 13.75,9.40124512 C13.7515517,9.62247989 13.6457906,9.83075338 13.4662354,9.96000977 L9.70874023,12.4050049 C9.30375977,12.6699951 8.75,12.35 8.75,11.8449951 L8.75,6.90375977 L8.75,6.90498047 L8.75,6.90500488 Z" id="路径" fill="url(#linearGradient-2)"></path>
        </g>
    </g>
</svg>