<?xml version="1.0" encoding="UTF-8"?>
<svg width="40px" height="40px" viewBox="0 0 40 40" version="1.1" xmlns="http://www.w3.org/2000/svg" xmlns:xlink="http://www.w3.org/1999/xlink">
    <title>影视分类icon/体育</title>
    <defs>
        <linearGradient x1="67.2784429%" y1="38.677369%" x2="50%" y2="60.1130799%" id="linearGradient-1">
            <stop stop-color="#5AD6A8" offset="0%"></stop>
            <stop stop-color="#37B3B3" offset="100%"></stop>
        </linearGradient>
    </defs>
    <g id="影视分类icon/体育" stroke="none" stroke-width="1" fill="none" fill-rule="evenodd">
        <text id="体-育" font-family="AlimamaShuHeiTi-Bold, Alimama ShuHeiTi" font-size="8" font-weight="bold" fill="#37B2B2">
            <tspan x="10.96" y="35">体 育</tspan>
        </text>
        <g id="运动" transform="translate(8, 2)">
            <path d="M8.19595372,0.0157728546 C9.64172662,0.249104047 9.66854745,3.18316681 10.6460381,3.44167276 C11.9798896,3.79442145 14.2623411,1.93889727 14.9378461,1.96043787 C15.3881828,1.97479827 16.030922,3.31929387 16.8660637,5.99392466 L13.6307603,5.99392466 C13.2652767,5.99392466 12.9689937,6.29020766 12.9689937,6.65569126 C12.9689937,7.02117486 13.2652767,7.31745786 13.6307603,7.31745786 L17.2387428,7.31745786 L17.2387428,7.31745786 L17.7408727,9.10693667 L14.5302567,9.10693667 C14.1684681,9.10693667 13.8712692,9.39268157 13.8570574,9.75419085 C13.843546,10.0978826 14.1112102,10.387453 14.454902,10.4009643 C14.4630528,10.4012848 14.4712092,10.401445 14.4793664,10.401445 L18.0404092,10.401445 L18.0404092,10.401445 C20.9452162,13.8195405 22.7744914,15.8906248 23.5282345,16.6146981 C24.6588492,17.700808 23.8562153,21.108132 20.0406084,20.4763578 C17.4446556,20.0465294 0.287262331,11.3120513 0.287262331,9.10693667 C0.287262331,7.31745786 5.65415077,-0.394445039 8.19595372,0.0157728546 Z" id="路径-2" fill="url(#linearGradient-1)"></path>
            <path d="M0.885299495,7.37780875 C3.03547835,9.17648171 5.99422605,11.2875364 9.7615426,13.7109728 C15.4125174,17.3461274 20.5293311,19.8164007 22.4820373,20.2342171 C21.8542087,20.5821735 21.1575017,20.6612889 20.0406084,20.4763578 C19.6003073,20.4034543 18.7411062,20.0916447 17.6177713,19.6133088 C16.8899553,19.3033919 8.81805821,20.1521804 0.628229041,18.6826923 C-0.197203021,18.5345863 13.763526,17.8298046 13.0339769,17.4646896 C12.306862,17.1007927 11.5592828,16.7175138 10.8081091,16.3227422 C10.2476741,16.0282113 1.03632794,16.3693138 0.0727693404,15.7619925 C-0.890789261,15.1546713 8.04245771,14.8256396 7.51351112,14.5254298 C3.58826416,12.2976095 0.287262331,10.0741637 0.287262331,9.10693667 C0.287262331,8.70408571 0.434776344,8.22071894 0.885299495,7.37780875 Z" id="路径" fill="#70D6B0"></path>
        </g>
    </g>
</svg>