<?xml version="1.0" encoding="UTF-8"?>
<svg width="40px" height="40px" viewBox="0 0 40 40" version="1.1" xmlns="http://www.w3.org/2000/svg" xmlns:xlink="http://www.w3.org/1999/xlink">
    <title>影视分类icon/其他</title>
    <defs>
        <linearGradient x1="50%" y1="100%" x2="50%" y2="3.061617e-15%" id="linearGradient-1">
            <stop stop-color="#3995FF" offset="0%"></stop>
            <stop stop-color="#47CDEE" offset="100%"></stop>
        </linearGradient>
    </defs>
    <g id="影视分类icon/其他" stroke="none" stroke-width="1" fill="none" fill-rule="evenodd">
        <text id="其-他" font-family="AlimamaShuHeiTi-Bold, Alimama ShuHeiTi" font-size="8" font-weight="bold" fill="#3B98FF">
            <tspan x="10.96" y="35">其 他</tspan>
        </text>
        <path d="M9.5537761,10.719327 C9.43407702,12.4476629 9.62886007,14.2576178 10.4896053,15.7852152 C10.5461903,15.9065406 10.6027753,16.028969 10.657184,16.1513974 C10.6930937,16.188898 10.7627368,16.2638992 10.7986465,16.3013998 C11.2545912,17.0580293 11.8889963,17.6944363 12.6322188,18.1631936 C12.6703049,18.1973853 12.746477,18.2679747 12.7856513,18.3021664 C13.229626,18.5216551 13.6692481,18.7521734 14.114311,18.9716622 C15.3461234,19.4448313 16.6693423,19.6378491 17.9838559,19.587113 C18.8358957,19.5970396 19.6737892,19.3907864 20.4616268,19.0742373 L20.4420397,19.0279131 C20.5922076,18.974971 20.7412874,18.9198231 20.8903672,18.8657782 C20.9262769,18.8282776 20.9980963,18.7532764 21.0329179,18.7146729 C21.3996323,18.473125 21.7609059,18.2161356 22.0612418,17.8907629 C22.4431907,17.4804623 22.8860773,17.1197949 23.1972949,16.6455228 C23.6706503,16.1403678 24.1440058,15.631904 24.6685054,15.179691 C25.5662485,14.6568887 26.6348348,14.2267349 27.6794813,14.490342 C27.9330257,14.544387 28.1746003,14.6403443 28.4161748,14.7318899 C28.8296807,15.0021147 29.1724553,15.3693999 29.3922664,15.818304 L29.4183825,15.7885241 C29.6958667,16.4712554 29.9211186,17.2047227 29.848211,17.9525286 C29.7524518,18.710261 29.5054364,19.4481402 29.1136939,20.1010916 C28.9624378,20.330507 28.8057409,20.5566135 28.6577493,20.7871318 C27.8198557,21.6264832 27.0418117,22.5728215 25.9623436,23.1055504 C25.9003177,23.1540806 25.83938,23.2048167 25.7784423,23.2544498 C25.5183689,23.3790841 25.2615599,23.5114392 25.004751,23.6460001 C24.747942,23.7717374 24.4867804,23.8886509 24.2180016,23.9879172 L24.2103844,24.0276237 C22.5987995,24.6419716 20.8914553,25.0180804 19.1634359,24.9993301 C17.7303114,24.9110934 16.2634536,24.6816781 14.985938,23.9790935 C14.7965958,23.8798273 14.6072536,23.781664 14.4168233,23.6835007 C14.3025651,23.6062936 14.1872187,23.5312924 14.0707841,23.4584972 C14.0337862,23.4265114 13.9608786,23.3636427 13.9238807,23.3327599 C13.5887233,23.1088593 13.2568304,22.8739292 12.9771698,22.5805422 C12.4167605,21.9904595 11.7965016,21.4522157 11.3329397,20.7749992 C11.0717781,20.411023 10.8106164,20.0470467 10.5951581,19.6532905 C10.3339965,19.2286515 10.1087446,18.7797474 9.94660672,18.3076812 L9.89763891,18.312093 C9.84867111,18.1245901 9.79535061,17.9392931 9.7463828,17.7517901 L9.68762144,17.755099 C9.10109594,16.0168365 8.78770199,14.1351894 9.16312183,12.314205 C9.27411552,11.7781672 9.45584049,11.2597767 9.5537761,10.719327 Z M16.0748004,3.259523 C16.2178587,3.41642369 16.3652521,3.57112996 16.5115617,3.72583624 C17.4555299,3.52065841 18.37999,3.20795424 19.3467174,3.12017763 C21.1111033,2.88098637 22.9361806,3.10591393 24.6019429,3.74009994 C25.17526,3.97380516 25.7290691,4.25798194 26.2481973,4.5981163 C26.4627848,4.74623933 26.6806236,4.89107073 26.8995462,5.03261052 C26.9418134,5.06223512 27.0252641,5.12258154 27.0675313,5.15220615 C27.5617328,5.58889478 28.1220445,5.96194537 28.5111198,6.50725756 C28.823247,6.86275283 29.1472958,7.20947044 29.4247422,7.59459032 C29.6024813,7.85353132 29.7813042,8.11356952 29.946038,8.38128818 C30.7568373,9.75862663 31.1113714,11.3886228 30.9694554,12.9837822 L30.934,13.3 L30.8602934,12.803307 C30.7693603,12.1367665 30.7003455,11.4668555 30.5356117,10.8137975 C30.3513699,10.3683312 30.2007252,9.90860119 29.9904728,9.47520418 C29.7888906,9.19870786 29.6013975,8.91233667 29.4214909,8.62047944 C29.0725153,8.14758296 28.6227486,7.7646575 28.2228356,7.33894094 C27.7817391,6.86494725 27.2366002,6.5127436 26.7196395,6.13201256 C26.6806236,6.10129074 26.6025918,6.04094432 26.5646597,6.01022251 C26.3663288,5.89940454 26.1723331,5.78090612 25.98484,5.65143562 C25.9133108,5.64046354 25.7713363,5.61742218 25.6998071,5.6064501 C25.8537032,5.96743141 26.052034,6.31305181 26.1463225,6.69817169 C26.3717477,8.00823759 26.2384434,9.39291361 25.6499535,10.594356 L25.189349,11.3327767 C24.6517966,12.0788779 23.9917775,12.7053834 23.2699833,13.2638621 C23.2298836,13.2934867 23.1518518,13.3505415 23.1117522,13.3790689 C22.890662,13.5228031 22.6695719,13.6687317 22.4517331,13.8190492 C22.3336016,13.8837844 22.2154701,13.9496169 22.0973387,14.0154493 C20.7534575,14.8504243 19.1733134,15.26078 17.6072584,15.350751 C16.8161025,15.3551398 16.0173603,15.26078 15.2630528,15.0084222 C15.0831461,14.9338121 14.905407,14.8559104 14.7287517,14.7736198 C14.6160391,14.7176622 14.5022427,14.6617046 14.3884463,14.6068442 C13.4769914,13.9287699 12.7216002,13.0564899 12.0344868,12.1512936 C12.2609957,12.3784156 12.4842534,12.6099264 12.7096786,12.8392428 C12.9166797,12.9544496 13.1193456,13.0773368 13.3230954,13.1980296 C15.1730995,14.2173355 17.4620325,14.2162383 19.3889847,13.4119851 C19.4984459,13.3538331 19.608991,13.2967783 19.7195361,13.2375291 C19.9070292,13.1475581 20.0934385,13.0553927 20.2809316,12.967616 C20.3188637,12.9325054 20.3936442,12.8633813 20.4315763,12.8293679 C21.1197735,12.3937765 21.7136823,11.815548 22.1818731,11.1451542 C22.3249314,10.8456165 22.4723248,10.5482732 22.6197183,10.25093 C22.9762803,9.10654242 22.9795316,7.86011456 22.6630693,6.70585214 C22.543854,6.21759475 22.3444394,5.75567034 22.1786218,5.28387106 L22.1450248,5.28716269 C22.0550714,5.07101278 21.9586154,4.85815451 21.8621595,4.64529623 L21.4709166,4.10108125 C20.1866431,3.92991686 18.8893643,3.95186101 17.5964206,3.97270795 C17.2030103,3.98806886 16.7955108,3.96612471 16.4183571,4.10217845 C16.2265289,4.24700986 16.0823868,4.44560444 15.9100665,4.61238 C15.4071949,4.94812553 14.8512183,5.23888555 14.245388,5.31239846 C13.9300094,5.36396722 13.6850762,5.08637369 13.5907878,4.81097458 C13.4618186,4.50265924 13.6027093,4.17898299 13.676406,3.87615368 C13.7663594,3.75216922 13.8541452,3.62708755 13.9386796,3.49981147 C14.298493,3.27598111 14.6658927,2.99399875 15.1102405,3.00606804 C15.4537972,2.96656856 15.768092,3.12785808 16.0748004,3.259523 Z M15.173031,8.01757811 C15.3951688,8.01869783 15.6162334,8.037733 15.8372981,8.06124705 C16.1613832,8.2963875 16.4436163,8.58751378 16.6775585,8.91894985 C16.6700466,8.95702021 16.6550228,9.03316092 16.6475109,9.07123128 L16.7634089,9.072351 C16.8707218,9.47880807 17.0735433,9.91997635 16.8943307,10.3387503 C16.8020415,10.6713061 16.5305398,10.8874114 16.2697693,11.074404 C15.8973934,11.1404673 15.5228712,11.0990378 15.1687384,10.9646718 C14.7339421,10.6916476 14.3631684,10.2436211 14.3184441,9.70511391 L14.3145273,9.5560685 C14.2640903,8.90663297 14.6772451,8.35349304 15.173031,8.01757811 Z M11.5281192,9.56143464 C11.6984597,9.77442095 11.8669387,9.98740726 12.0344868,10.2039237 C12.0298326,10.3039449 12.0223861,10.5039873 12.0186628,10.6040085 C11.9767757,10.6334265 11.8930017,10.6910858 11.8511147,10.719327 C11.791542,10.6957926 11.6723967,10.6475471 11.6128241,10.622836 C11.5067103,10.4792762 11.3987348,10.3380698 11.2907594,10.1968634 C11.2861053,10.0462433 11.2814512,9.8956231 11.2758662,9.74617967 C11.3391622,9.7002876 11.4648232,9.60850344 11.5281192,9.56143464 Z M19.8254244,5.65802672 C20.1419789,5.8072242 20.3904572,6.05927753 20.671839,6.26159837 C21.1517765,6.79283185 21.5250612,7.46309026 21.517119,8.19551429 C21.4955615,8.63519476 21.0882386,8.87481497 20.7626073,9.09748091 C20.5980897,9.12121688 20.4335721,9.14721341 20.2701891,9.17547051 C19.8640009,9.09522035 19.4441974,9.00366734 19.0992778,8.76178657 C18.3243432,8.22716224 17.7059841,7.50830162 17.1262014,6.77700787 C16.9911835,6.4571375 16.9321841,6.11353117 16.9843759,5.76879455 C17.7967524,5.12453267 18.9370294,5.24208221 19.8254244,5.65802672 Z M12.9008407,6.08775744 C13.0593247,6.27233343 13.2153891,6.45905565 13.3666143,6.65007034 C13.5613923,7.0707319 13.6097844,7.52358694 13.4767062,7.96463771 C13.301285,8.11058151 13.1282834,8.25759844 12.9528622,8.40354224 C12.0926934,8.08268049 11.7612078,7.0578545 12.2862616,6.3764257 C12.3782065,6.14034013 12.6649295,6.11995093 12.9008407,6.08775744 Z" id="形状结合" fill="url(#linearGradient-1)"></path>
    </g>
</svg>