<?xml version="1.0" encoding="UTF-8"?>
<svg width="40px" height="40px" viewBox="0 0 40 40" version="1.1" xmlns="http://www.w3.org/2000/svg" xmlns:xlink="http://www.w3.org/1999/xlink">
    <title>影视分类icon/音乐</title>
    <g id="影视分类icon/音乐" stroke="none" stroke-width="1" fill="none" fill-rule="evenodd">
        <text id="音-乐" font-family="AlimamaShuHeiTi-Bold, Alimama ShuHeiTi" font-size="8" font-weight="bold" fill="#F55E55">
            <tspan x="10.96" y="35">音 乐</tspan>
        </text>
        <g id="音乐" transform="translate(10, 2)" fill-rule="nonzero">
            <g id="编组-10">
                <path d="M10,4.28571414 C4.4771526,4.28571414 0,8.62581115 0,13.9795919 C0,19.3333725 4.4771526,23.6734697 10,23.6734697 C15.5228472,23.6734697 20,19.3333725 20,13.9795919 C20,8.62581115 15.5228472,4.28571414 10,4.28571414 L10,4.28571414 Z" id="路径" fill="#F55E55"></path>
                <path d="M18.6179405,0.0165960454 C18.8572029,-0.0328151625 19.1057391,0.0293988494 19.2946195,0.185983641 C19.4835007,0.342568413 19.5926438,0.576875578 19.5918325,0.823922341 L19.5918325,6.05101777 C19.5918325,6.26752631 19.5058808,6.47497443 19.3532874,6.6267769 C19.2006936,6.77857937 18.9942252,6.86201396 18.7802472,6.85834432 L15.4800142,6.85834432 L15.4805778,12.8330036 C15.654614,13.3498928 15.7490438,13.8995232 15.7505107,14.469511 C15.7562275,16.7021848 14.3135125,18.7179802 12.0956944,19.5760828 C9.87787656,20.4341848 7.32220847,19.9654152 5.62147338,18.3885594 C3.92073814,16.8117032 3.41024341,14.4376439 4.32824783,12.374405 C5.24625224,10.311166 7.41176728,8.96551717 9.81410167,8.96551717 C10.564778,8.96551717 11.2829714,9.09502729 11.9441894,9.33133923 L11.9092703,6.85834432 L11.9092703,3.17748385 C11.9116402,2.20470077 12.5801876,1.3635202 13.5188101,1.15232625 Z" id="形状结合" fill-opacity="0.3254902" fill="#FFE8E7"></path>
                <path d="M10.2039672,15.7142855 C9.45902493,15.7142342 8.78789693,15.3142265 8.50499857,14.7016608 C8.2221002,14.0890953 8.3834683,13.3853094 8.91350384,12.9200186 C9.44353939,12.4547278 10.2372523,12.3200975 10.9227977,12.5792002 C11.6083432,12.838303 12.0499273,13.4398154 12.0406732,14.1019364 C12.0221165,14.9933807 11.206994,15.7089344 10.2039672,15.7142855 L10.2039672,15.7142855 Z" id="路径" fill="#FFFFFF"></path>
            </g>
        </g>
    </g>
</svg>