<?xml version="1.0" encoding="UTF-8"?>
<svg width="40px" height="40px" viewBox="0 0 40 40" version="1.1" xmlns="http://www.w3.org/2000/svg" xmlns:xlink="http://www.w3.org/1999/xlink">
    <title>影视分类icon/MV</title>
    <defs>
        <linearGradient x1="50%" y1="0%" x2="50%" y2="100%" id="linearGradient-1">
            <stop stop-color="#67B1FF" offset="0%"></stop>
            <stop stop-color="#6162FF" offset="100%"></stop>
        </linearGradient>
        <linearGradient x1="40.3978555%" y1="72.195935%" x2="50%" y2="1.7763568e-13%" id="linearGradient-2">
            <stop stop-color="#81A9FF" offset="0%"></stop>
            <stop stop-color="#74BDFF" offset="100%"></stop>
        </linearGradient>
    </defs>
    <g id="影视分类icon/MV" stroke="none" stroke-width="1" fill="none" fill-rule="evenodd">
        <text id="M-V" font-family="AlimamaShuHeiTi-Bold, Alimama ShuHeiTi" font-size="8" font-weight="bold" fill="#626EFF">
            <tspan x="12.536" y="35">M V</tspan>
        </text>
        <g id="录像" transform="translate(9, 5)" fill-rule="nonzero">
            <g id="编组-14">
                <path d="M24,4.2843517 L24,9.9100739 C24,11.0146434 23.1045695,11.9100739 22,11.9100739 C21.8412614,11.9100739 21.6830873,11.8911757 21.5288168,11.8537782 L4.93967588,7.83232079 C4.40293676,7.70220715 4.07330168,7.16161618 4.20341532,6.62487705 C4.29393372,6.25147449 4.59038434,5.96295274 4.9661031,5.88258814 L21.5816713,2.32859071 C22.6618082,2.09755413 23.7247244,2.785886 23.955761,3.86602297 C23.9851717,4.00352307 24,4.14374137 24,4.2843517 Z" id="路径" fill="url(#linearGradient-1)"></path>
                <path d="M15.5886801,0 C17.2286092,0 18.5579525,1.23154043 18.5579525,2.75066261 L18.5579525,13.890846 C18.5579525,14.7898402 18.0924459,15.5880813 17.3725404,16.0900044 L19.059378,18.642341 C19.3982658,19.1551169 19.2608967,19.8479189 18.7526387,20.1897449 C18.5714057,20.3121413 18.358209,20.3774429 18.1401189,20.3773585 C17.7826497,20.3773585 17.4319641,20.2028372 17.218869,19.8802791 L15.078,16.641 L4.167,16.641 L2.02643245,19.8803533 C1.81333702,20.2028375 1.46257797,20.3773583 1.10518261,20.3773583 C0.887104365,20.3773583 0.673917469,20.31216 0.492662844,20.1898192 C-0.0155951177,19.847993 -0.152964121,19.1551913 0.185849933,18.6424153 L1.68618782,16.3721446 C0.688714298,15.9287032 0,14.9843023 0,13.890846 L0,2.75066261 C0,1.23154043 1.32941748,0 2.96927239,0 L15.5886801,0 Z" id="形状结合" fill="url(#linearGradient-2)"></path>
                <path d="M4.05481942,12.4528302 C3.44275876,12.4528302 2.94555206,11.9032918 2.94339623,11.2233811 C2.9412543,10.5419897 3.4372013,9.98768061 4.0510404,9.98521299 L9.97898898,9.96226415 L9.98291643,9.96226415 C10.594977,9.96226415 11.0921839,10.5118025 11.0943396,11.1917133 C11.0964809,11.8731046 10.6005343,12.4274137 9.98669521,12.4298814 L4.05874679,12.4528302 L4.05481942,12.4528302 Z" id="路径" fill="#FFFFFF"></path>
            </g>
        </g>
    </g>
</svg>