<?xml version="1.0" encoding="UTF-8"?>
<svg width="40px" height="40px" viewBox="0 0 40 40" version="1.1" xmlns="http://www.w3.org/2000/svg" xmlns:xlink="http://www.w3.org/1999/xlink">
    <title>影视分类icon/软件</title>
    <defs>
        <linearGradient x1="49.154392%" y1="100%" x2="49.154392%" y2="4.02455846e-14%" id="linearGradient-1">
            <stop stop-color="#36B9FF" offset="0.0437062937%"></stop>
            <stop stop-color="#13EDFC" offset="100%"></stop>
        </linearGradient>
        <linearGradient x1="0%" y1="50%" x2="100%" y2="50%" id="linearGradient-2">
            <stop stop-color="#22B5FF" offset="0%"></stop>
            <stop stop-color="#25A4FF" offset="100%"></stop>
        </linearGradient>
    </defs>
    <g id="影视分类icon/软件" stroke="none" stroke-width="1" fill="none" fill-rule="evenodd">
        <text id="软-件" font-family="AlimamaShuHeiTi-Bold, Alimama ShuHeiTi" font-size="8" font-weight="bold" fill="#23AFFF">
            <tspan x="10.96" y="35">软 件</tspan>
        </text>
        <g id="软件集群" transform="translate(9, 1)">
            <rect id="矩形" fill="#000000" fill-rule="nonzero" opacity="0" x="0" y="0" width="25" height="25"></rect>
            <path d="M13.0224377,16.4996921 C13.0224377,13.1848452 15.8294194,10.4999691 19.2950225,10.4999691 L19.2950225,10 L1,10 L1,18.9995845 C1,20.1045413 1.93564422,20.9994844 3.09085341,20.9994844 L15.1551165,20.9994844 C13.8483362,19.899543 13.0224377,18.2946171 13.0224377,16.4996921 Z M7.30394766,17.4446485 C7.6123334,17.7396427 7.6123334,18.2146286 7.30394766,18.5046074 C6.99553741,18.7996016 6.49894961,18.7996016 6.19578285,18.5046074 L4.13104888,16.5296907 C3.98293303,16.3897298 3.89957032,16.1988718 3.89957032,15.999723 C3.89957032,15.8005743 3.98293303,15.6097162 4.13104888,15.4697553 L6.19578285,13.4948387 C6.34211001,13.3531587 6.54165338,13.2734177 6.74986525,13.2734177 C6.95807713,13.2734177 7.1576205,13.3531587 7.30394766,13.4948387 C7.6123334,13.7898329 7.6123334,14.2647953 7.30394766,14.5547975 L5.79328383,15.999723 L7.30394766,17.4446485 Z M11.3602028,13.9748165 L10.4716029,18.334623 C10.3827332,18.7396044 9.96455268,18.9995845 9.54115321,18.9145806 C9.11775374,18.8296002 8.8459499,18.4296108 8.93481969,18.0246295 L9.82341952,13.664823 C9.91228931,13.2598417 10.3304698,12.9998615 10.7538693,13.0848654 C11.1772687,13.1748612 11.4490726,13.5698352 11.3602028,13.9748165 Z M18.4064226,17.6646462 L20.3875058,17.2196589 C20.4136497,17.1396704 20.4450127,17.0596819 20.4920571,16.9896773 L19.3525293,15.5647431 L18.4064226,17.6646462 L18.4064226,17.6646462 Z M19.2950225,11.9998999 C16.6966839,12.0000422 14.5904351,14.0148987 14.5905839,16.5002077 C14.5907328,18.9855168 16.697223,21.0001424 19.2955615,21 C21.8939,20.9998576 24.0001489,18.9850011 24,16.4996921 C23.9998511,14.0143831 21.893361,11.9997575 19.2950225,11.9998999 L19.2950225,11.9998999 Z M21.3859004,18.4996154 C21.0879526,18.4996154 20.8213678,18.379621 20.6331902,18.1896219 L18.3698162,18.6946064 C18.2757275,19.1545696 17.852328,19.4945617 17.3453022,19.4945617 C16.7703071,19.4945617 16.2998633,19.0445825 16.2998633,18.4946 C16.2998633,17.9446176 16.7650881,17.4996538 17.3400832,17.4946618 L18.4377856,15.064774 C18.3175528,14.9097655 18.249608,14.7097826 18.249608,14.4997923 C18.249608,13.9498098 18.7200519,13.4998306 19.2950225,13.4998306 C19.8699931,13.4998306 20.3404614,13.9498098 20.3404614,14.4997923 C20.3404614,14.674792 20.2881981,14.8397844 20.2045473,14.9797701 L21.4172633,16.4996921 C21.9817959,16.5197068 22.4313148,16.9596787 22.4313148,17.4996538 C22.4313148,18.0496362 21.960871,18.4996154 21.3859004,18.4996154 L21.3859004,18.4996154 Z" id="形状" fill="url(#linearGradient-1)"></path>
            <path d="M16.9428633,4 L3.05713666,4 C1.92055618,4 1,5.02284157 1,6.28571046 L1,8 L19,8 L19,6.28571046 C19,5.02284157 18.0794438,4 16.9428633,4 Z" id="路径" fill="url(#linearGradient-2)"></path>
        </g>
    </g>
</svg>