<?xml version="1.0" encoding="UTF-8"?>
<svg width="40px" height="40px" viewBox="0 0 40 40" version="1.1" xmlns="http://www.w3.org/2000/svg" xmlns:xlink="http://www.w3.org/1999/xlink">
    <title>影视分类icon/电视剧</title>
    <defs>
        <rect id="path-1" x="0" y="0" width="40" height="40"></rect>
        <linearGradient x1="50%" y1="0%" x2="50%" y2="100%" id="linearGradient-3">
            <stop stop-color="#FD91FF" offset="0%"></stop>
            <stop stop-color="#B45AF1" offset="100%"></stop>
        </linearGradient>
        <path d="M19.0769231,0 L4.92307692,0 C2.20414716,0 0,2.32533961 0,5.19376654 L0,15.0167598 C0,17.8851867 2.20414716,20.2105263 4.92307692,20.2105263 L19.0769231,20.2105263 C21.7958528,20.2105263 24,17.8851867 24,15.0167598 L24,5.19376654 C24,2.32533961 21.7958528,0 19.0769231,0 Z" id="path-4"></path>
    </defs>
    <g id="影视分类icon/电视剧" stroke="none" stroke-width="1" fill="none" fill-rule="evenodd">
        <g id="视频">
            <mask id="mask-2" fill="white">
                <use xlink:href="#path-1"></use>
            </mask>
            <g id="蒙版"></g>
            <g mask="url(#mask-2)">
                <g transform="translate(8, 2)">
                    <path d="M18.5741974,0.227646563 C18.9678878,-0.0921671671 19.5838373,-0.0726449962 19.9499365,0.271297735 C20.3123834,0.611775546 20.2940781,1.14254879 19.9116678,1.46346447 L19.8999683,1.47311304 L17.3287299,3.56182712 C16.9350395,3.88164085 16.31909,3.86211868 15.9529908,3.51817595 C15.5905439,3.17769814 15.6088492,2.6469249 15.9912595,2.32600921 L16.0029591,2.31636064 L18.5741974,0.227646563 Z M5.42580256,0.227646563 C5.03211217,-0.0921671671 4.4161627,-0.0726449962 4.05006348,0.271297735 C3.68761663,0.611775546 3.70592189,1.14254879 4.08833223,1.46346447 L4.10003174,1.47311304 L6.67127013,3.56182712 C7.06496052,3.88164085 7.68090999,3.86211868 8.04700921,3.51817595 C8.40945606,3.17769814 8.3911508,2.6469249 8.00874046,2.32600921 L7.99704095,2.31636064 L5.42580256,0.227646563 Z" id="形状" fill="#CF70FC" fill-rule="nonzero"></path>
                    <g id="矩形" transform="translate(0, 2.5263)">
                        <mask id="mask-5" fill="white">
                            <use xlink:href="#path-4"></use>
                        </mask>
                        <use id="蒙版" fill="url(#linearGradient-3)" fill-rule="nonzero" xlink:href="#path-4"></use>
                        <rect fill="#FEBBFF" opacity="0.76609003" mask="url(#mask-5)" x="0" y="-1.31777512" width="24.1102341" height="6.09549474"></rect>
                    </g>
                    <path d="M14.6483101,13.4465559 L10.7468641,11.495852 C10.5792598,11.4120506 10.3944464,11.3684211 10.2070594,11.3684211 C9.54041775,11.3684211 9,11.9088388 9,12.5754805 L9,16.4768882 C9,16.6642816 9.04362661,16.8491019 9.12743099,17.016712 C9.42555551,17.612961 10.150615,17.8546411 10.7468641,17.5565166 L14.6482909,15.6058128 C14.8818854,15.489014 15.0712967,15.2996026 15.1880956,15.0660081 C15.4862201,14.4697399 15.24454,13.7446996 14.6482909,13.4465559 L14.6483101,13.4465559 Z" id="形状" fill="#FCCCFF" fill-rule="nonzero"></path>
                </g>
            </g>
        </g>
        <text id="电视剧" font-family="AlimamaShuHeiTi-Bold, Alimama ShuHeiTi" font-size="8" font-weight="bold" fill="#BA5EF2">
            <tspan x="8" y="35">电视剧</tspan>
        </text>
    </g>
</svg>