<?xml version="1.0" encoding="UTF-8"?>
<svg width="36px" height="36px" viewBox="0 0 36 36" version="1.1" xmlns="http://www.w3.org/2000/svg" xmlns:xlink="http://www.w3.org/1999/xlink">
    <title>1</title>
    <g id="web2" stroke="none" stroke-width="1" fill="none" fill-rule="evenodd">
        <g id="候选区备份" transform="translate(-551, -357)">
            <g id="1" transform="translate(551, 357)">
                <g id="编组-2备份" fill="#E2EAF5" stroke="#14598D">
                    <rect id="矩形备份-2" x="0.5" y="0.5" width="35" height="35" rx="6"></rect>
                </g>
                <path d="M27.1394012,27.499621 C27.1145685,27.7235617 26.984058,27.9219931 26.7884905,28.0333277 C24.5594981,29.3015564 21.6110714,30 18.486277,30 C15.3614826,30 12.4130559,29.3015564 10.1840634,28.0333277 L10,27.9285889 L13.0526764,25.0148178 C16.9076156,21.3352142 21.9658695,19.2023744 27.2680869,19.0005258 C27.6981765,18.9841555 28.0431368,19.3523304 27.9956135,19.7808215 L27.1394012,27.499621 Z M18.3460177,11.9267172 C18.398025,11.9507926 18.4498754,11.9753208 18.5015688,12 C19.9184723,11.3248323 21.4378998,10.8762299 23,10.6704193 C21.6358882,8.03163512 19.038428,6.21715026 18.904527,6.12492414 C18.6628462,5.95835862 18.3378597,5.95835862 18.096179,6.12492414 C17.9623564,6.21715026 15.3638764,8.03231436 14,10.6719287 C15.5048373,10.8711734 16.9801018,11.2950966 18.3460177,11.9267172 L18.3460177,11.9267172 Z M23.7574969,16.6701813 L25.0557178,18 C25.6996319,17.9212371 26.3479264,17.8628864 27,17.8254406 L26.2138528,13.5303649 C26.1580245,13.2255195 25.8385153,13 25.462319,13 C23.5828834,13 21.7284417,13.3009038 20,13.8790613 C21.4217301,14.6396616 22.6992515,15.5861535 23.7574969,16.6701813 Z M17.2237707,18.6070233 C17.5656127,18.73127 17.903356,18.8624358 18.2370824,19 C18.5708088,18.8624358 18.908552,18.73127 19.2503941,18.6070233 C20.4743855,18.1621159 21.7264948,17.8116956 23,17.5564318 L22.2466358,16.7018079 C20.961326,15.2436575 19.3017934,14.0453835 17.4473206,13.2364407 C15.5929298,12.4275724 13.5251542,12 11.4676256,12 C11.1086504,12 10.8036158,12.2383751 10.7503311,12.5605982 L10,17.1005878 C12.478642,17.2583885 14.9017039,17.7630385 17.2237707,18.6070233 L17.2237707,18.6070233 Z M9.73679743,26 L12.1635382,23.807884 C13.6298269,22.4833164 15.2567152,21.3543411 17,20.4377799 C14.7001418,19.5823125 12.2489602,19.0907322 9.74413775,19.000506 C9.30686462,18.9847546 8.9561427,19.3390074 9.00445973,19.7512956 L9.73679743,26 Z" id="形状" fill="#14598D" fill-rule="nonzero"></path>
            </g>
        </g>
    </g>
</svg>