<?xml version="1.0" encoding="UTF-8"?>
<svg width="36px" height="36px" viewBox="0 0 36 36" version="1.1" xmlns="http://www.w3.org/2000/svg" xmlns:xlink="http://www.w3.org/1999/xlink">
    <title>10</title>
    <g id="web2" stroke="none" stroke-width="1" fill="none" fill-rule="evenodd">
        <g id="候选区备份" transform="translate(-1535, -357)">
            <g id="10" transform="translate(1535, 357)">
                <g id="编组-2备份" fill="#E2EAF5" stroke="#14598D">
                    <rect id="矩形备份-2" x="0.5" y="0.5" width="35" height="35" rx="6"></rect>
                </g>
                <g id="邮件" transform="translate(6, 6)" fill="#14598D" fill-rule="nonzero">
                    <rect id="矩形" opacity="0" x="0" y="0" width="24" height="24"></rect>
                    <path d="M20.3213906,3.67858594 L3.67858594,3.67858594 C2.5291875,3.67858594 1.60863281,4.60952344 1.60863281,5.75892187 L1.59822656,18.2410313 C1.59822656,19.3904531 2.52916406,20.3213906 3.67858594,20.3213906 L20.3213906,20.3213906 C21.4707891,20.3213906 22.40175,19.3904531 22.40175,18.2410547 L22.40175,5.75894531 C22.40175,4.60952344 21.4708125,3.67858594 20.3213906,3.67858594 L20.3213906,3.67858594 Z M20.3213906,7.83930469 L12,13.0401562 L3.6785625,7.83930469 L3.6785625,5.75894531 L11.9999766,10.9598437 L20.3213906,5.75894531 L20.3213906,7.83932812 L20.3213906,7.83930469 Z" id="形状"></path>
                </g>
            </g>
        </g>
    </g>
</svg>