<?xml version="1.0" encoding="UTF-8"?>
<svg width="36px" height="36px" viewBox="0 0 36 36" version="1.1" xmlns="http://www.w3.org/2000/svg" xmlns:xlink="http://www.w3.org/1999/xlink">
    <title>13</title>
    <g id="web2" stroke="none" stroke-width="1" fill="none" fill-rule="evenodd">
        <g id="候选区备份" transform="translate(-1673, -357)">
            <g id="13" transform="translate(1673, 357)">
                <g id="编组-2备份" fill="#E2EAF5" stroke="#14598D">
                    <rect id="矩形备份-2" x="0.5" y="0.5" width="35" height="35" rx="6"></rect>
                </g>
                <g id="退出" transform="translate(9, 7)" fill="#14598D" fill-rule="nonzero">
                    <rect id="矩形" opacity="0" x="0" y="0" width="22" height="22"></rect>
                    <path d="M21,11 C21,11.1890625 20.9315752,11.3544922 20.7925873,11.4941406 L14.852459,17.4625 C14.7156094,17.6 14.5509622,17.6708984 14.3606557,17.6708984 C14.1703493,17.6708984 14.0057021,17.6021484 13.8688525,17.4625 C13.7320029,17.325 13.6614398,17.1595703 13.6614398,16.9683594 L13.6614398,13.8080078 L8.86742694,13.8080078 C8.67925873,13.8080078 8.51461155,13.7392578 8.37562366,13.5996094 C8.23663578,13.4599609 8.16821098,13.2966797 8.16821098,13.1054688 L8.16821098,8.89453125 C8.16821098,8.70546875 8.23663578,8.54003906 8.37562366,8.40039063 C8.51247327,8.26074219 8.67712046,8.19199219 8.86742694,8.19199219 L13.663578,8.19199219 L13.663578,5.03164063 C13.663578,4.84257812 13.7320029,4.67714844 13.8709907,4.5375 C14.0078403,4.39785156 14.1724875,4.32910156 14.362794,4.32910156 C14.5531005,4.32910156 14.7177477,4.4 14.8545973,4.5375 L20.7925873,10.5058594 C20.9294369,10.6433594 21,10.8087891 21,11 Z M8.91660727,22 L5.1318603,22 C3.76122594,22 2.47184604,21.4628906 1.50320741,20.4896484 C0.534568781,19.5164062 0,18.2208984 0,16.84375 L0,5.15625 C0,3.77910156 0.534568781,2.48359375 1.50320741,1.51035156 C2.47184604,0.537109375 3.76122594,0 5.1318603,0 L8.91660727,0 C10.0498931,0 10.9693514,0.923828125 10.9693514,2.0625 C10.9693514,3.20117188 10.0498931,4.125 8.91660727,4.125 L5.1318603,4.125 C4.56521739,4.125 4.10548824,4.58691406 4.10548824,5.15625 L4.10548824,16.84375 C4.10548824,17.4130859 4.56521739,17.875 5.1318603,17.875 L8.91660727,17.875 C10.0498931,17.875 10.9693514,18.7988281 10.9693514,19.9375 C10.9693514,21.0761719 10.0498931,22 8.91660727,22 Z" id="形状"></path>
                </g>
            </g>
        </g>
    </g>
</svg>