<?xml version="1.0" encoding="UTF-8"?>
<svg width="36px" height="36px" viewBox="0 0 36 36" version="1.1" xmlns="http://www.w3.org/2000/svg" xmlns:xlink="http://www.w3.org/1999/xlink">
    <title>5</title>
    <g id="web2" stroke="none" stroke-width="1" fill="none" fill-rule="evenodd">
        <g id="候选区备份" transform="translate(-735, -357)">
            <g id="5" transform="translate(735, 357)">
                <g id="编组-2备份" fill="#E2EAF5" stroke="#14598D">
                    <rect id="矩形备份-2" x="0.5" y="0.5" width="35" height="35" rx="6"></rect>
                </g>
                <g id="收藏" transform="translate(5, 5)" fill="#14598D" fill-rule="nonzero">
                    <rect id="矩形" opacity="0" x="0" y="0" width="26" height="26"></rect>
                    <path d="M8.43705004,23.7128075 C7.51110464,24.276012 6.30027279,23.9847176 5.73789921,23.0677244 C5.47129274,22.6323377 5.38843265,22.112395 5.50689627,21.6181933 L6.70535296,16.6146226 C6.73442659,16.4959725 6.69460958,16.3712755 6.60168523,16.289961 L2.6787602,12.9434698 C1.86390762,12.2488659 1.76985642,11.0341169 2.46644889,10.2242926 C2.80123046,9.83405045 3.28141694,9.59095449 3.80020731,9.54907309 L8.94855657,9.13849459 C9.060758,9.12933248 9.16112568,9.05691902 9.20706846,8.94679705 L11.1906516,4.19739288 C11.6039818,3.20798626 12.7535051,2.73549412 13.7564343,3.15089346 C14.2347577,3.3499061 14.6132115,3.726126 14.8091477,4.19739288 L16.7927566,8.94654465 C16.8386736,9.05691902 16.9390671,9.12961012 17.0512685,9.13849459 L22.2001592,9.54932549 C23.2798143,9.63549473 24.0792495,10.5705092 23.993732,11.6320769 C23.9535509,12.1386609 23.712161,12.6096494 23.3213485,12.9439998 L19.3983977,16.290491 C19.3070793,16.3683058 19.2658288,16.4943037 19.2947041,16.6149003 L20.4931866,21.6184709 C20.7412312,22.6536628 20.0971816,23.6966286 19.0458346,23.9462014 C18.5395467,24.0664973 18.0051154,23.9824845 17.5627492,23.7130599 L13.1547438,21.031566 C13.0600756,20.9733902 12.9397495,20.9733902 12.8450813,21.031566 L8.43676644,23.7130599 L8.43705004,23.7128075 Z" id="路径"></path>
                </g>
            </g>
        </g>
    </g>
</svg>