<?xml version="1.0" encoding="UTF-8"?>
<svg width="36px" height="36px" viewBox="0 0 36 36" version="1.1" xmlns="http://www.w3.org/2000/svg" xmlns:xlink="http://www.w3.org/1999/xlink">
    <title>6</title>
    <g id="web2" stroke="none" stroke-width="1" fill="none" fill-rule="evenodd">
        <g id="候选区备份" transform="translate(-781, -357)">
            <g id="6" transform="translate(781, 357)">
                <g id="编组-2备份" fill="#E2EAF5" stroke="#14598D">
                    <rect id="矩形备份-2" x="0.5" y="0.5" width="35" height="35" rx="6"></rect>
                </g>
                <g id="动态" transform="translate(3, 3)" fill="#14598D" fill-rule="nonzero">
                    <rect id="矩形" opacity="0" x="0" y="0" width="30" height="30"></rect>
                    <path d="M14.0920185,12.8439308 C15.9464645,13.4657734 18.2232959,12.2046534 18.9697031,10.1676831 L20.708427,5.42540703 C21.4548342,3.38843673 19.9301961,2.40917996 17.9947448,3.3739077 L17.4190276,4.04224317 C15.4864693,5.00697091 13.4150445,7.12239799 12.819076,8.74674378 C12.2260004,10.365278 11.8875134,11.6932315 13.5047291,12.2889218 L14.0920185,12.8439308 Z M12.6339207,16.3047463 C13.5452318,14.4711824 12.1189575,11.760065 10.0909285,11.010367 L5.36946876,9.26397732 C3.34143977,8.51427926 2.42144945,10.2170818 3.38194249,12.1581605 L3.99237632,12.5649734 C4.95286937,14.5060521 7.05901074,16.5866095 8.67622644,17.1852056 C10.2905491,17.780896 11.635818,18.2429192 12.2317865,16.6185734 L12.6339207,16.3047463 L12.6339207,16.3047463 Z M26.5900003,18.2080495 L25.8493792,17.6094534 C24.8888861,15.6683747 22.7827448,13.5878173 21.1684221,12.9892212 C19.5540995,12.3935308 17.8153756,12.4225889 17.161546,14.0236883 C16.3543847,15.9996366 17.7285841,18.4172676 19.75372,19.1669656 L24.4751798,20.9133553 C26.5032088,21.6630533 27.6112474,20.422274 26.6478614,18.4782895 L26.5900003,18.2080495 L26.5900003,18.2080495 Z M16.0592935,17.3072495 C14.343714,16.5633631 11.7457539,17.7838018 10.9993467,19.8178663 L9.26062281,24.5601424 C8.51421557,26.5971127 10.0186023,27.5938043 11.9511606,26.6290765 L12.5471291,25.946212 C14.4796874,24.9814843 16.5511122,22.8660572 17.1470808,21.2417114 C17.7401563,19.6202714 17.9600282,18.2196727 16.3428125,17.6239824 L16.0592935,17.3072495 L16.0592935,17.3072495 Z" id="形状"></path>
                    <path d="M13.9600431,12.7478841 C15.5886667,13.3466957 17.5383451,12.1665986 18.2913646,10.118955 L20.0454914,5.35183019 C20.7985109,3.30418652 19.8178344,2.42495578 17.868156,3.39473852 L16.7298707,3.96433983 C14.7801923,4.93412256 12.6904172,7.0606341 12.0891691,8.69349118 C11.487921,10.3205062 12.3285009,12.1490724 13.9600431,12.7478841 L13.9600431,12.7478841 Z M12.7400348,16.1333605 C13.3383642,14.5034245 12.1592174,12.5521749 10.1132226,11.7985486 L5.34993642,10.0430081 C3.30394158,9.28938178 2.42541883,10.2708486 3.39442067,12.2220982 L3.96064463,13.3613009 C4.92964647,15.3125505 7.05444568,17.4040096 8.68598793,18.0057423 C10.3146115,18.6074749 12.1417053,17.7662176 12.7400348,16.1333605 Z M26.6037659,17.8626117 L26.0375419,16.7234091 C25.0685401,14.7721595 22.9437409,12.6807003 21.3151173,12.0789677 C19.6864937,11.480156 17.8623186,12.3214133 17.2610705,13.9513494 C16.662741,15.5812854 17.8418878,17.532535 19.8878827,18.2861614 L24.6511688,20.0417018 C26.6971637,20.7953282 27.5756864,19.8138613 26.6037659,17.8626117 Z M16.02355,17.2521159 C14.3949265,16.6533043 12.4452481,17.8334014 11.6922286,19.881045 L9.93810176,24.6481698 C9.18508225,26.6958135 10.1657588,27.5750442 12.1154372,26.6052615 L13.2537225,26.0385812 C15.2034009,25.0687985 17.293176,22.9422869 17.8944241,21.3094299 C18.4956722,19.6794938 17.6550923,17.8538486 16.02355,17.2521159 Z" id="形状"></path>
                </g>
            </g>
        </g>
    </g>
</svg>