<svg id="图层_1" data-name="图层 1" xmlns="http://www.w3.org/2000/svg" xmlns:xlink="http://www.w3.org/1999/xlink" width="500mm" height="500mm" viewBox="0 0 1417.32 1417.32">
  <defs>
    <style>
      .cls-1, .cls-5 {
        fill: #fff;
      }

      .cls-2 {
        fill: url(#未命名的渐变_68);
      }

      .cls-3, .cls-5, .cls-6 {
        fill-rule: evenodd;
      }

      .cls-4 {
        fill: #231f20;
      }

      .cls-6 {
        fill: #f4c3c9;
      }
    </style>
    <radialGradient id="未命名的渐变_68" data-name="未命名的渐变 68" cx="740.43" cy="471.12" r="346.87" gradientUnits="userSpaceOnUse">
      <stop offset="0" stop-color="#f2f2f2"/>
      <stop offset="0.56" stop-color="#f6f6f6"/>
      <stop offset="1" stop-color="#fff"/>
    </radialGradient>
  </defs>
  <rect class="cls-1" width="1417.32" height="1417.32"/>
  <g>
    <g>
      <path class="cls-1" d="M547.68,1148.81a724,724,0,0,1,325.87-15.89c14.26,2.59,29.53,5.51,42.8-.33,16.62-7.31,24.76-25.82,31.08-42.84a1443.1,1443.1,0,0,0,54.66-183.45c2.91-12.81,5.61-26.43,1.32-38.85-3.8-11-12.57-19.49-21.44-27.05-114-97.23-295.32-104.33-416.56-16.32-25.52,18.52-48.67,41-64.45,68.27-14.5,25.08-22.32,53.36-30,81.28-9.95,36.16-19.46,76.68-1.42,109.56,16.16,29.48,50,44,82,54.36Z"/>
      <path d="M472.72,597.8c-108.4,123.85-150.41,302.63-108.49,461.78,12.38,47,32.5,93.56,67.83,127s88.18,51.26,134.14,35.39,77.65-71,59.32-116c-16.65-40.91-65.81-62.73-78.95-104.9-11.23-36,9-76.06,39.35-98.55s68.57-31,105.83-37c53.18-8.63,110.79-12.76,158,13.16s75.18,92.61,43.15,135.92c-17.11,23.14-46.67,34.59-63.68,57.81-31,42.27-2.25,109.41,47.12,127s106.5-6.46,140-46.71,47.39-93.39,53.65-145.41a622.44,622.44,0,0,0-30.86-280.31C1018.07,667.05,985.91,608.4,934,571.84,887.29,538.92,829,527,772,522.23c-88.44-7.34-182.16,2.37-256.15,51.36"/>
      <path d="M384.87,968.21c-27.14-45.9-85.05-73.5-134.88-54.5-50.91,19.41-80.15,77-78.89,131.42s27.76,105.46,60.89,148.71c33.87,44.22,87.17,85.85,140.46,69.58,30.59-9.34,53.29-36.87,63.21-67.28s8.58-63.41,3.35-95C430.93,1052.43,410,1010.75,384.87,968.21Z"/>
      <path d="M948.19,1108.57c2.71-65.16,32.07-131.56,86.69-167.2s135.24-32.53,179.16,15.68c45.94,50.43,40,131.61,7.55,191.61-40.32,74.61-129.39,130-210.12,103.91-17-5.47-33.52-14.9-42.76-30.13-7.28-12-9.34-26.36-10.85-40.31a760.66,760.66,0,0,1-4.15-102.8Z"/>
    </g>
    <g>
      <g>
        <path d="M544,211.67A126.11,126.11,0,1,0,374,386.33,489.41,489.41,0,0,1,544,211.67Z"/>
        <path d="M933.17,211.67a126.11,126.11,0,1,1,170,174.66A489.3,489.3,0,0,0,933.17,211.67Z"/>
      </g>
      <ellipse class="cls-2" cx="740.43" cy="471.12" rx="382.04" ry="307.7"/>
      <g>
        <path class="cls-3" d="M914.76,349c40.8,8.83,88.88,39.21,102.27,92.52s-18.16,108.58-81.12,104.63c-82.66-5.19-130.2-80.35-93.22-155.21,13.73-27.77,42.83-48.28,72.07-41.94Z"/>
        <path class="cls-4" d="M915,347.81a149,149,0,0,1,67.06,34.26c16.6,15,30,34.69,36.11,59.14a100.17,100.17,0,0,1,2.88,30.64c-1.07,17.11-6.71,33.19-16.42,46.08a72.81,72.81,0,0,1-41,27,90.3,90.3,0,0,1-27.81,2.36,127.5,127.5,0,0,1-48.68-12.61,105.48,105.48,0,0,1-44.38-40.5A100.63,100.63,0,0,1,829,436.15a120.44,120.44,0,0,1,12.63-45.75c7.25-14.67,18.72-27.34,32.25-35.21,12.52-7.28,26.81-10.48,41.14-7.38Zm65.47,36a146.69,146.69,0,0,0-66-33.7c-13.7-3-27.4.11-39.43,7.11-13.13,7.65-24.28,20-31.32,34.2a118,118,0,0,0-12.39,44.85A98.24,98.24,0,0,0,844.81,493a103,103,0,0,0,43.38,39.59A125.11,125.11,0,0,0,936,544.94a87.83,87.83,0,0,0,27.08-2.29,70.46,70.46,0,0,0,39.69-26.15c9.43-12.52,14.91-28.16,16-44.8a97.59,97.59,0,0,0-2.82-29.91c-6-23.94-19.11-43.22-35.39-58Z"/>
        <path class="cls-5" d="M890.54,442.59c-1.1,23.38-28.11,16.29-34.76,3.13-6.34-12.57-7.12-24.51.81-29.65,11.59-7.51,35.3-1.84,33.95,26.52Z"/>
        <path class="cls-4" d="M891.73,442.64c-.27,5.66-2,9.68-4.6,12.32a13.92,13.92,0,0,1-8.65,4,22.65,22.65,0,0,1-9.93-1.34c-5.87-2.1-11.27-6.31-13.83-11.38-3.37-6.69-5.21-13.25-5.06-18.77.14-5.32,2.11-9.71,6.28-12.41a21.57,21.57,0,0,1,12.65-3.18,23.66,23.66,0,0,1,10.13,2.79,23,23,0,0,1,8.4,7.8c3.15,4.85,5,11.49,4.61,20.15Zm-6.3,10.66c2.21-2.25,3.69-5.75,3.93-10.77.38-8.11-1.33-14.28-4.23-18.75a20.55,20.55,0,0,0-7.54-7,21.35,21.35,0,0,0-9.11-2.52,19.21,19.21,0,0,0-11.24,2.81c-3.46,2.24-5.09,5.95-5.21,10.49-.14,5.11,1.61,11.27,4.82,17.62,2.28,4.53,7.17,8.32,12.5,10.22a20.33,20.33,0,0,0,8.87,1.22,11.62,11.62,0,0,0,7.21-3.32Z"/>
        <path class="cls-3" d="M565.2,350.32c-40.73,9.15-88.58,39.91-101.56,93.31s19,108.44,81.93,104c82.62-5.83,129.58-81.34,92-155.92-13.94-27.66-43.2-47.95-72.39-41.39Z"/>
        <path class="cls-4" d="M565.46,351.48a146.46,146.46,0,0,0-65.71,34.2c-16.18,14.86-29.13,34.25-35,58.24a97.8,97.8,0,0,0-2.58,29.93c1.17,16.64,6.76,32.22,16.29,44.67a70.48,70.48,0,0,0,39.89,25.85,88.2,88.2,0,0,0,27.1,2.08,125.13,125.13,0,0,0,47.69-12.74,103.07,103.07,0,0,0,43.07-39.92,98.27,98.27,0,0,0,13-56.79,118,118,0,0,0-12.73-44.75c-7.16-14.2-18.4-26.42-31.58-34-12.09-6.92-25.81-9.88-39.49-6.81Zm-67.32,32.46a148.93,148.93,0,0,1,66.8-34.78c14.3-3.21,28.61-.13,41.18,7.06,13.59,7.77,25.17,20.35,32.53,34.95a120.31,120.31,0,0,1,13,45.66A100.59,100.59,0,0,1,638.31,495a105.47,105.47,0,0,1-44.06,40.85,127.76,127.76,0,0,1-48.6,13,90.37,90.37,0,0,1-27.82-2.15A72.78,72.78,0,0,1,476.62,520c-9.82-12.82-15.58-28.86-16.78-46a99.87,99.87,0,0,1,2.65-30.67c5.95-24.49,19.16-44.26,35.65-59.41Z"/>
        <path class="cls-5" d="M590.14,443.75c1.28,23.37,28.24,16.07,34.78,2.86,6.24-12.62,6.93-24.56-1-29.64-11.64-7.42-35.31-1.58-33.74,26.78Z"/>
        <path class="cls-4" d="M591.32,443.68c.28,5,1.78,8.5,4,10.74a11.67,11.67,0,0,0,7.24,3.26,20.34,20.34,0,0,0,8.86-1.28c5.32-1.95,10.17-5.77,12.42-10.31,3.16-6.38,4.86-12.56,4.68-17.67-.15-4.54-1.81-8.23-5.28-10.44A19.16,19.16,0,0,0,612,415.26a21.31,21.31,0,0,0-9.09,2.58,20.5,20.5,0,0,0-7.48,7.06c-2.86,4.49-4.54,10.67-4.09,18.78Zm2.33,12.42c-2.62-2.63-4.39-6.63-4.7-12.29-.48-8.65,1.34-15.3,4.45-20.19a23.17,23.17,0,0,1,8.34-7.86,23.75,23.75,0,0,1,10.11-2.88A21.61,21.61,0,0,1,624.52,416c4.19,2.67,6.2,7,6.38,12.37.19,5.52-1.59,12.08-4.92,18.79-2.52,5.1-7.89,9.36-13.74,11.5a22.65,22.65,0,0,1-9.92,1.41,13.93,13.93,0,0,1-8.67-3.94Z"/>
        <path class="cls-3" d="M740.39,456.35c-12.25,0-22.16,6-22.13,13.27s10,13.15,22.23,13.11,22.16-6,22.13-13.28-10-13.15-22.23-13.1Zm42.87,85.17a46.82,46.82,0,0,1-7.35,7,51.84,51.84,0,0,1-33.7,10.15,56.6,56.6,0,0,1-33.94-13,53.13,53.13,0,0,1-8.09-8.45l-7.59,5.8a62.83,62.83,0,0,0,9.53,10,66.18,66.18,0,0,0,39.71,15.23,61.37,61.37,0,0,0,39.88-12.12,55.52,55.52,0,0,0,8.88-8.47l-7.33-6.15Z"/>
        <path class="cls-6" d="M915.41,563.92c-16.45-3.85-31.36-.22-33.31,8.11s9.81,18.19,26.26,22,31.36.22,33.31-8.11-9.81-18.19-26.26-22Z"/>
        <path class="cls-6" d="M555.12,559.31c16.42-4,31.36-.46,33.37,7.85s-9.66,18.27-26.08,22.25-31.36.46-33.38-7.85,9.67-18.27,26.09-22.25Z"/>
      </g>
    </g>
  </g>
</svg>
