<?xml version="1.0" encoding="UTF-8"?>
<svg width="40px" height="40px" viewBox="0 0 40 40" version="1.1" xmlns="http://www.w3.org/2000/svg" xmlns:xlink="http://www.w3.org/1999/xlink">
    <title>规格分类icon/Encode</title>
    <defs>
        <rect id="path-1" x="0" y="0" width="40" height="40"></rect>
    </defs>
    <g id="规格分类icon/Encode" stroke="none" stroke-width="1" fill="none" fill-rule="evenodd">
        <g id="视频">
            <mask id="mask-2" fill="white">
                <use xlink:href="#path-1"></use>
            </mask>
            <g id="蒙版"></g>
        </g>
        <text id="Encode" font-family="AlimamaShuHeiTi-Bold, Alimama ShuHeiTi" font-size="8" font-weight="bold" fill="#1A70CC">
            <tspan x="5.712" y="35">Encode</tspan>
        </text>
        <g id="E" transform="translate(9, 3)" fill="#1A70CC" fill-rule="nonzero">
            <rect id="矩形" opacity="0" x="0" y="0" width="22" height="22"></rect>
            <path d="M14.9908086,1.364 L7.00919141,1.364 L1.364,7.00919141 L1.364,14.9908086 L7.00919141,20.636 L14.9908086,20.636 L20.636,14.9908086 L20.636,7.00919141 L14.9908086,1.364 Z M13.7984043,8.9584043 L9.988,8.9584043 L9.988,10.5864043 L13.4508086,10.5864043 L13.4508086,12.0955957 L9.988,12.0955957 L9.988,13.9567871 L13.7984043,13.9567871 L13.7984043,15.466 L8.3115957,15.466 L8.3115957,7.44480859 L13.7984043,7.44480859 L13.7984043,8.95838281 L13.7984043,8.9584043 Z" id="形状"></path>
        </g>
    </g>
</svg>